<svg width="1440" height="79" viewBox="0 0 1440 79" fill="none" xmlns="http://www.w3.org/2000/svg">
<g clip-path="url(#clip0_175_45)">
<path d="M0 6.00002C4.4 6.20002 8.7 6.80002 12.6 9.40002C19.7 14.3 21.7 24.2 17.2 31.5C13.7 37.2 10.2 43 8 49.3C6.4 53.9 6.9 59.2 6.6 64.3C6.6 64.8 7.7 65.7 8.4 65.8C19 66.9 29.6 68 40.1 69C40.9 69.1 42 68.9 42.7 68.4C46.1 65.9 49.5 63.3 52.7 60.6C53.5 59.9 54 58.5 54.1 57.4C54.3 53.3 56.1 50 59.4 47.7C60.4 47 62.1 46.6 63.4 46.8C71.3 48 76.6 56.2 74.3 64C73.1 68 70 70.2 66.3 71.1C62.4 72 58.3 72.2 54.3 72.4C50.8 72.5 47.3 72 43.8 71.8C41.6 71.6 40.6 73.2 39.4 74.4C39.5 74.7 39.5 75 39.6 75.2C41.4 75.2 43.1 75.3 44.9 75.2C51.8 74.8 58.6 74.4 65.5 75.7C74.9 77.5 82.9 74.8 89.2 67.5C94.6 61.4 100.9 56.5 108 52.5C112.7 49.8 115.9 45.8 118 40.6C120.3 34.9 124.4 30.2 129.7 26.8C130.4 26.4 131.1 25.9 131.6 25.2C135.7 20.6 141.2 19.7 146.7 20.6C149.9 21.1 152.8 23.4 155.7 25.1C157.1 25.9 158.3 27.2 159.5 28.3C164.8 32.7 165.8 39.8 162.1 45.9C160.1 49.1 157 50.9 154.1 52.8C145.3 58.5 136.4 63.9 127.5 69.4C126.4 70.1 125.2 70.8 124.2 71.6C123.6 72.1 122.8 73.4 123.1 73.7C123.6 74.4 124.6 75 125.4 75C130.1 75.1 134.9 75 139.6 74.9C148.7 74.7 157.9 74.4 167 74.2C169.7 74.2 172.4 74.6 175.7 74.9C174.9 73.7 174.5 73.1 174.1 72.6C171.3 68.7 171.3 65.8 174 61.9C177.4 57 180.3 56 185.9 58.1C191.4 60.2 195.6 63.8 197.6 69.5C198.6 72.3 200.5 74 203.7 74C206.1 74 208.5 74.4 210.9 74.6C213.7 74.7 214.9 72.8 213.7 70.2C211.8 66.2 209.7 62.2 208.1 58.1C205.7 51.8 209.7 44.3 215.8 42.1C217.7 41.4 219.6 40.8 221.5 40.5C226.3 39.8 230.4 40.8 233.7 44.9C237.2 49.3 239 54 239.4 59.4C239.6 62.5 240.1 65.5 240.4 68.5C240.8 72.4 243.4 74.6 246.7 74.9C256.2 75.8 265.8 76.9 275.1 73.5C278.5 72.2 281.8 70.7 285.3 69.6C286.7 69.1 288.3 69 289.7 69.3C296.1 70.5 300.9 66.6 306.8 64.6C297.8 58.9 291.5 52.3 294.4 41C292.7 40.1 290.9 39.3 291.2 36.8C291.2 36.6 291 36.3 290.9 36.2C287.4 33.9 285.3 29.7 280.5 29.4C279.6 29.3 278.7 29.1 277.8 29C275.5 28.5 273.1 27.8 272.5 25.4C271.8 22.5 271.9 19.4 274.5 17.1C275.6 16.1 277 15.4 278 14.3C279 13.1 280 11.7 280.5 10.2C281 8.40002 281.9 7.40002 283.6 6.70002C285.7 5.80002 287.6 4.50002 289.6 3.50002C290.6 3.00002 291.7 2.50002 292.9 2.40002C303.2 1.10002 313.4 -0.799983 323.9 -0.0999826C331 0.300017 338 0.600018 344.5 4.00002C345.1 4.30002 345.7 4.60002 346.3 4.90002C353.7 9.20002 353.6 13.2 349.7 18.6C348.5 20.3 348.4 22 349.3 24C352.6 30.8 357.5 36.2 363.5 40.7C366.3 42.8 368.9 45.2 371.5 47.6C373.2 49.2 378.3 48.4 380.3 46.1C384.6 41.3 387.7 36 387.2 29.2C387.1 28.1 387.2 27 387.3 26C387.7 19.2 392.5 14.7 399.3 14.1C408.2 13.3 416.3 15.4 424 19.5C428.3 21.8 432.5 24.3 436.8 26.7C437.8 27.2 439 27.4 440.1 27.4C445.5 27.7 450.9 27.8 456.3 28C462.9 28.2 466 32.5 468 38.1C469.2 41.4 470.6 44.7 471.7 48.1C474.1 55.2 472.5 60.7 466.7 65.6C466.1 66.1 465.6 66.6 464.9 67.3C466.6 68.5 468.1 69.6 469.8 70.8C477.2 65.2 486.1 66.8 494.5 66C498.5 65.6 500.2 64.3 500.2 60.2C500.2 58.4 499.8 56.6 499.3 54.9C496.7 47.1 494.1 39.4 491.4 31.7C489.8 27.1 489.8 22.5 491.7 17.9C493.5 13.4 496.6 10.3 501.3 8.90002C509.2 6.60002 517.2 5.30002 525.4 6.30002C530.8 6.90002 535.2 9.20002 537.6 14.5C537.8 14.9 538 15.2 538.2 15.6C542.5 20.9 540.5 26.1 537.8 31.3C534.7 37.2 530.8 42.9 528.7 49.1C527.1 53.8 527.6 59.2 527.3 64.3C527.3 64.7 528.7 65.5 529.5 65.6C537.4 66.3 545.4 66.3 553.1 67.8C560 69.2 565.4 68 570.2 63.2C571.2 62.2 572.5 61.5 573.3 60.4C574 59.5 574.6 58.3 574.6 57.2C574.8 53.4 576.4 50.3 579.3 48C580.5 47.1 582.4 46.4 583.8 46.7C591.9 47.9 597.2 56 594.9 63.9C593.8 67.9 590.6 70.2 586.9 71.1C582.9 72.1 578.7 72.2 574.6 72.4C571.2 72.5 567.8 72 564.4 71.8C562.2 71.7 561.1 73.1 559.9 74.4C560 74.7 560 75 560.1 75.3C561.8 75.3 563.6 75.4 565.3 75.3C572.3 74.9 579.2 74.5 586.2 75.8C595.5 77.6 603.4 74.7 609.7 67.6C615 61.6 621.2 56.7 628.2 52.7C633 50 636.2 46 638.4 40.7C640.7 35 644.8 30.3 650.1 26.9C650.7 26.5 651.4 26.1 651.9 25.5C655.8 20.9 661.3 19.9 666.6 20.6C669.9 21.1 673 23.4 676.1 25.2C678 26.3 679.6 28 681.3 29.4C683.2 31 684.5 33 684.6 35.6C684.9 41.6 683.4 46.8 678.1 50.5C668 57.4 658.1 64.5 647.1 70C646 70.5 645 71.4 644.1 72.2C643.7 72.6 643.3 73.5 643.4 73.9C643.6 74.5 644.4 75 645 75.2C645.7 75.4 646.5 75.3 647.2 75.3C660.1 75 673 74.7 685.9 74.5C689 74.5 692.2 74.9 696 75.1C695.2 73.9 694.7 73.3 694.2 72.6C690.6 67.2 694.3 58 700.8 57.3C702.9 57 705.4 58 707.5 58.9C712.6 61.1 716.3 64.8 718.2 70C719.2 72.7 721 74.2 724 74.2C726.4 74.2 728.8 74.7 731.2 74.8C734.2 75 735.4 73 734.1 70.3C732.2 66.3 730.1 62.3 728.6 58.1C726.3 52 730.2 44.5 736.1 42.4C738.1 41.7 740.2 40.9 742.3 40.6C747.1 39.9 751.1 41 754.5 45.1C758.8 50.3 760 56.1 760.3 62.4C760.4 64.5 760.9 66.7 761.1 68.8C761.5 72.6 764.2 74.8 767.5 75.1C776.8 76 786.3 77.1 795.4 73.7C798.1 72.7 800.7 71.2 803.4 70.4C805.7 69.7 808.1 69.3 810.5 69.5C813.4 69.7 816.1 69.6 818.7 68.4C821.4 67.2 824.2 66.1 827 64.9C824.2 62.6 821.4 60.6 819.1 58.2C815 53.8 813.2 48.7 814.7 42.7C814.8 42.2 814.8 41.2 814.6 41.1C812.3 40.4 812.5 37.7 811.4 36.7C808.7 34.2 806.5 30.8 802.4 30C801.1 29.8 799.8 29.6 798.5 29.3C796.2 28.8 793.6 28 793.1 25.5C792.5 22.6 792.5 19.5 795.2 17.2C796.2 16.3 797.5 15.7 798.3 14.7C799.4 13.4 800.2 11.7 801.2 10.3C802 9.20002 802.8 7.80002 803.9 7.10002C805.9 5.70002 808.1 4.70002 810.3 3.60002C811.3 3.10002 812.5 2.70002 813.6 2.60002C823.8 1.30002 834 -0.499983 844.4 0.100017C851.6 0.500017 858.7 0.800018 865.2 4.30002C865.9 4.70002 866.7 5.10002 867.4 5.50002C873.8 9.70002 874.4 12.1 870.4 18.7C869.3 20.6 869.1 22.3 870.1 24.3C873.4 31.1 878.3 36.5 884.3 41C887 43.1 889.6 45.4 892.1 47.8C893.8 49.4 898.9 48.8 900.9 46.5C905.3 41.6 908.5 36.3 907.9 29.3C907.8 28 907.9 26.6 908 25.3C908.8 18.7 913.4 14.9 920.1 14.3C928.9 13.5 936.9 15.7 944.6 19.6C948.8 21.8 952.8 24.3 957 26.4C958.2 27 959.7 27.4 961.1 27.5C965.7 27.7 970.4 27.8 975.1 27.9C982.3 28 986.6 31.8 988.8 38.4C989.9 41.6 991.2 44.7 992.3 47.9C994.9 55.4 993.3 60.8 987.4 65.9C986.9 66.3 986.4 66.8 985.7 67.5C987.3 68.7 988.8 69.8 990.5 71C998.4 65.3 1007.8 67 1016.7 66.2C1018.4 66 1019.4 65.6 1020.1 64C1021.5 61 1021.2 58.1 1020.2 55.1C1017.5 47.4 1014.9 39.6 1012.3 31.9C1010.3 26.2 1010.9 20.7 1013.8 15.4C1015.7 12 1018.5 10.1 1022 9.00002C1029.8 6.60002 1037.9 5.40002 1046.1 6.40002C1051.6 7.00002 1056.1 9.40002 1058.5 14.7C1059 15.8 1060 16.7 1060.4 17.9C1060.9 19.2 1061.6 20.8 1061.4 22.1C1061 25.9 1059.9 29.4 1057.8 32.8C1054.5 38.1 1051.3 43.7 1049.3 49.6C1047.8 54.2 1048.3 59.4 1048 64.3C1048 64.7 1049.2 65.6 1049.9 65.7C1060.3 66.8 1070.7 67.8 1081.2 68.8C1082.2 68.9 1083.5 68.8 1084.3 68.2C1087.7 65.8 1091 63.2 1094.1 60.5C1094.9 59.8 1095.5 58.4 1095.5 57.3C1095.6 53.5 1097.2 50.3 1100.1 48C1101.3 47.1 1103.5 46.4 1104.8 46.8C1112 49.2 1116.5 52.5 1115.6 62.5C1115.3 66.2 1112.7 68.3 1109.7 70C1105.3 72.5 1100.5 72.6 1095.6 72.3C1092.2 72.1 1088.8 71.9 1085.4 71.6C1083.1 71.4 1082 72.8 1080.3 74.9C1083.1 74.9 1085.1 75 1087.1 74.9C1093.7 74.5 1100.2 74.2 1106.7 75.5C1115.9 77.3 1123.7 74.4 1130 67.4C1135.4 61.3 1141.8 56.3 1149 52.2C1153.6 49.6 1156.7 45.6 1158.8 40.5C1161.1 34.8 1165.2 30.1 1170.5 26.7C1171.2 26.2 1171.9 25.8 1172.4 25.2C1176.5 20.6 1181.9 19.7 1187.4 20.5C1190.6 21 1193.5 23.3 1196.4 25C1197.8 25.8 1199 27.1 1200.2 28.2C1205.7 32.8 1207 40.1 1202.7 45.8C1200.6 48.6 1197.7 50.8 1194.8 52.8C1186 58.5 1177.1 63.9 1168.2 69.4C1167 70.1 1165.8 70.9 1164.7 71.8C1164.2 72.3 1163.7 73.3 1163.9 73.8C1164.1 74.4 1165.1 74.9 1165.8 74.9C1168.8 75 1171.8 75 1174.8 74.9C1185.8 74.6 1196.8 74.3 1207.7 74.1C1210.4 74.1 1213.1 74.5 1216.4 74.8C1215.6 73.6 1215.2 73.1 1214.8 72.5C1212 68.6 1212 65.8 1214.7 61.8C1218.1 56.9 1221 55.9 1226.6 58C1232.1 60.1 1236.2 63.7 1238.3 69.4C1239.4 72.2 1241.1 73.9 1244.4 74C1246.8 74 1249.2 74.4 1251.6 74.6C1254.4 74.7 1255.7 72.8 1254.5 70.2C1252.6 66.2 1250.5 62.2 1248.9 58.1C1246.5 51.8 1250.5 44.3 1256.6 42.1C1258.5 41.4 1260.4 40.8 1262.3 40.5C1267.1 39.8 1271.2 40.8 1274.5 44.9C1278 49.3 1279.8 54 1280.2 59.4C1280.4 62.5 1280.9 65.5 1281.2 68.5C1281.6 72.5 1284.3 74.7 1287.7 75C1296.9 75.8 1306.3 76.9 1315.3 73.6C1318.9 72.3 1322.4 70.8 1326 69.5C1327.3 69.1 1328.9 68.9 1330.2 69.2C1336.7 70.5 1341.5 66.6 1347.3 64.7C1334.4 53.5 1333.6 51.8 1335.1 41C1333.5 40.1 1331.6 39.3 1332 36.9C1332 36.7 1331.8 36.4 1331.7 36.3C1328.3 34.1 1326.2 29.9 1321.6 29.6C1320.6 29.5 1319.6 29.3 1318.6 29.1C1316.3 28.6 1313.9 27.9 1313.3 25.5C1312.6 22.6 1312.7 19.5 1315.3 17.2C1316.4 16.2 1317.8 15.5 1318.8 14.4C1319.8 13.2 1320.8 11.8 1321.3 10.3C1321.8 8.50002 1322.7 7.50002 1324.4 6.80002C1326.5 5.90002 1328.4 4.60002 1330.4 3.60002C1331.4 3.10002 1332.5 2.60002 1333.7 2.50002C1344.1 1.10002 1354.4 -0.699983 1365 1.74344e-05C1372 0.400017 1379 0.800018 1385.4 4.10002C1386 4.40002 1386.6 4.70002 1387.2 5.00002C1394.6 9.30002 1394.5 13.3 1390.7 18.7C1389.5 20.4 1389.4 22.1 1390.3 24.1C1393.6 30.9 1398.5 36.3 1404.5 40.8C1407.3 42.9 1409.9 45.3 1412.5 47.7C1414.2 49.3 1419.3 48.5 1421.3 46.2C1425.7 41.3 1428.7 35.9 1428.2 29C1428.1 27.2 1428.3 25.3 1428.7 23.6C1429.8 18.4 1433.4 15.2 1438.9 14.4C1439.7 16 1439 16.7 1437.5 17.2C1433.2 18.5 1431.2 21.6 1430.8 25.8C1430.6 28.1 1430.4 30.4 1430.4 32.7C1430.6 39.9 1426.1 44.6 1421.5 49.3C1420.6 50.2 1418.8 50.4 1417.4 50.7C1416.1 51 1414.8 50.9 1413.3 51C1413.1 52.6 1413 54 1412.8 55.5C1412.2 59.2 1410.5 61.9 1406.7 63.2C1400.7 65.2 1394.9 67.4 1388.9 69.5C1387.1 70.1 1386 71.2 1386.3 73.2C1386.6 75.3 1388.2 75.7 1390 75.8C1403.6 77.1 1417 75.4 1430.3 72.5C1433.3 71.8 1436.2 70.4 1439.7 69C1439.1 70.5 1438.6 71.6 1438.2 72.6C1438 73.2 1437.7 74 1437.9 74.6C1438.4 76.1 1439.1 77.5 1440 79.5C959.4 79.5 479.7 79.5 0 79.5C0 77.8 0 76.2 0 74.5C3.6 74.3 7.2 74.1 11.4 73.9C10.8 72.9 10.6 72.1 10.1 71.7C7.1 69.4 4.3 66.8 0 67.6C0 66.8 0 65.9 0 65.1C1.3 65.2 2.6 65.2 4 65.3C4 63.3 3.9 61.7 4 60.1C4.4 56.1 4.1 51.8 5.6 48.2C8.1 42.1 11.4 36.2 14.9 30.5C18.8 24.1 17.3 15.5 11.1 11.3C7.7 9.10002 3.9 8.70002 0 8.50002C0 7.70002 0 6.90002 0 6.00002ZM436 50C432.8 48.3 430.2 46.9 427.6 45.5C424.6 43.8 422 41.6 422.3 37.7C422.6 33.9 425.7 32.5 428.7 31.1C430.6 30.2 432.5 29.4 434.4 28.5C434.4 28.2 434.5 28 434.5 27.7C428.5 24.8 422.5 21.7 416.4 19.1C410.9 16.7 405 16.2 399.1 16.9C393.5 17.5 390.2 20.8 389.8 26.4C389.6 29 389.4 31.5 389.4 34.1C389.3 39.9 385.5 43.7 382.3 47.9C379.9 51 376.5 51 373.1 51.2C372.9 51.2 372.7 51.3 372.3 51.5C372.2 52.1 372.2 52.6 372.1 53.2C372 59.3 369 62.9 363 64.5C357.7 65.9 352.5 68.1 347.3 70C345.7 70.6 344.7 71.9 345.3 73.5C345.7 74.5 347 75.8 348 75.9C352.5 76.4 357 76.8 361.4 76.6C367.1 76.3 372.8 75.4 378.5 74.8C386.7 74 394.2 71.4 401.5 67.3C410.6 62.2 420 57.6 429.3 52.9C431.3 51.9 433.4 51.1 436 50ZM956.6 50.1C953 48.1 949.9 46.6 947 44.7C941.4 41 941.7 35.4 947.5 32.1C948.1 31.7 948.9 31.5 949.5 31.2C951.4 30.4 953.2 29.5 955.1 28.7C955.2 28.4 955.2 28.2 955.3 27.9C949.3 25 943.4 21.9 937.3 19.3C931.7 16.9 925.8 16.3 919.7 17C914.4 17.6 911 20.9 910.6 26.1C910.4 28.7 910.2 31.4 910.2 34C910.2 39.7 906.5 43.5 903.4 47.7C901 50.9 897.5 51.1 894 51.2C893.8 51.2 893.5 51.3 893.3 51.4C893.2 51.5 893.2 51.6 893.1 51.7C893 51.9 893 52.2 893 52.4C893.1 59.1 890 63.4 883.2 64.6C883 64.6 882.7 64.7 882.5 64.8C877.8 66.5 873 68.2 868.3 70C866.7 70.6 865.7 71.9 866.3 73.5C866.7 74.5 868 75.8 869 75.9C873.5 76.4 878 76.8 882.4 76.6C888.1 76.3 893.8 75.4 899.5 74.8C907.7 74 915.3 71.4 922.5 67.3C930.5 62.7 938.8 58.5 947.1 54.2C949.9 52.7 953.1 51.5 956.6 50.1ZM367.4 47.9C367.6 47.6 367.7 47.3 367.9 46.9C366.9 46.2 365.9 45.5 364.9 44.8C358.8 40.9 353.8 35.9 349.8 29.9C346.7 25.2 344.7 20.7 348.9 15.4C351 12.8 350.1 10.7 347.3 8.70002C342.5 5.10002 336.9 3.70002 331.1 3.00002C319.3 1.60002 307.7 3.10002 296 4.40002C294.4 4.60002 292.8 5.30002 291.3 5.90002C289.7 6.50002 288.1 7.20002 286.7 8.10002C285.2 9.00002 283.3 10 282.7 11.4C281.6 14.2 280 16.4 277.4 18.1C275.2 19.5 274.3 21.8 274.7 24.1C275.1 26.4 277.4 27.4 279.5 27.4C284.7 27.6 288.5 30.5 291.9 33.9C292.7 34.7 293.4 35.8 293.8 36.9C294.5 39 295.4 39.3 297.1 37.7C298.6 36.3 300.1 34.7 301.9 33.8C311.4 29.1 321.4 28.8 331.2 32.3C339 35.1 346.2 39.3 353.8 42.6C358.2 44.7 362.8 46.2 367.4 47.9ZM888.2 47.8C888.3 47.5 888.5 47.2 888.6 46.9C887.7 46.2 886.8 45.5 885.9 44.9C880.3 41.4 875.5 37 871.7 31.6C868 26.4 864.9 21.3 869.9 15C871.6 12.9 870.7 10.7 868.5 9.00002C863.6 5.30002 857.9 3.70002 851.9 3.00002C840.2 1.60002 828.7 3.10002 817.1 4.40002C815.6 4.60002 814.2 5.00002 812.8 5.50002C810.7 6.40002 808.6 7.30002 806.6 8.50002C805.4 9.20002 803.9 10.2 803.5 11.4C802.5 14.3 800.8 16.5 798.3 18.1C796.1 19.5 795.1 21.7 795.5 24.1C795.9 26.4 798.2 27.4 800.3 27.5C805.5 27.7 809.3 30.6 812.7 34C813.5 34.8 814.2 35.9 814.6 37C815.3 39.1 816.2 39.4 817.9 37.8C819.4 36.4 820.9 34.8 822.7 33.9C832.2 29.2 842.2 28.9 852 32.4C860 35.3 867.5 39.6 875.3 43C879.4 44.9 883.8 46.2 888.2 47.8ZM1408.4 47.9C1408.5 47.6 1408.7 47.3 1408.8 47C1407.8 46.3 1406.9 45.5 1405.9 44.9C1399.9 41.1 1395 36.3 1391 30.5C1387.7 25.7 1385.5 20.9 1389.9 15.3C1391.8 12.9 1391 10.8 1388.5 8.90002C1383.6 5.20002 1378 3.80002 1372.1 3.00002C1360.3 1.60002 1348.7 3.10002 1337 4.40002C1335.5 4.60002 1334.1 5.10002 1332.7 5.60002C1330.7 6.40002 1328.7 7.20002 1326.9 8.30002C1325.6 9.10002 1324 10.1 1323.6 11.4C1322.5 14.4 1320.8 16.6 1318.2 18.3C1316 19.7 1314.9 22.1 1315.8 24.3C1316.4 25.8 1318.7 27.3 1320.4 27.4C1325.5 27.8 1329.3 30.4 1332.7 33.8C1333.6 34.7 1334.3 36 1334.8 37.2C1335.5 39 1336.4 39.3 1337.9 38C1339.5 36.6 1341 34.9 1342.9 33.9C1352.4 29.1 1362.4 28.9 1372.2 32.3C1380.2 35.2 1387.7 39.5 1395.5 42.9C1399.6 44.9 1404 46.3 1408.4 47.9ZM524.7 65.3C524.7 63.6 524.6 62 524.7 60.3C525.1 56.4 524.8 52.1 526.2 48.6C528.6 42.6 532 37 535.1 31.2C537.6 26.5 539.2 22.3 536 16.7C532.6 10.8 527.9 8.70002 521.8 8.60002C515.1 8.50002 508.6 9.40002 502.2 11.4C497.6 12.9 492.5 19.7 492.8 24.5C493 27.3 493.4 30.1 494.3 32.8C496.3 39.2 498.6 45.6 500.9 52C502.6 56.6 504 61.1 501 66.1C509.1 65.8 516.7 65.6 524.7 65.3ZM1045.4 65.3C1045.4 63.6 1045.3 61.9 1045.4 60.3C1045.8 56.4 1045.5 52.3 1046.8 48.8C1049.1 42.9 1052.3 37.3 1055.4 31.8C1058.3 26.8 1060.1 22.3 1056.5 16.4C1053.6 11.7 1050 9.20002 1044.9 8.80002C1037.4 8.20002 1030 9.30002 1022.8 11.5C1018.3 12.9 1013.2 19.8 1013.5 24.4C1013.7 27.2 1014.1 30 1015 32.7C1017.1 39.3 1019.4 45.9 1021.7 52.4C1023.3 56.9 1024.6 61.3 1021.6 66.1C1029.8 65.8 1037.4 65.5 1045.4 65.3ZM100.4 72.7C110.3 71.5 120.6 70.9 129.3 65.5C139.1 59.5 148.6 53.2 157.9 46.5C163.3 42.7 163 34.5 158 30.5C155.7 28.6 153.3 26.9 150.7 25.3C149.1 24.3 147.2 23.1 145.4 23C141 22.6 136.8 23.5 133.7 27.2C133.3 27.6 132.8 28 132.3 28.3C127.1 31 123.7 35.5 121.3 40.4C117.9 47.3 113.3 52.6 106.5 56.2C102.3 58.4 98.3 61 95.5 64.9C94.2 66.7 93.3 68.7 94.3 70.9C95.2 72.9 97.3 72.6 99.1 72.7C99.5 72.7 100 72.7 100.4 72.7ZM620.9 72.7C630.9 71.6 641.2 70.9 650 65.5C659.7 59.5 669.3 53.2 678.6 46.6C683.9 42.8 683.7 34.7 678.7 30.6C676.6 28.9 674.2 27.5 672.1 25.7C668.7 22.9 665.1 22.5 660.9 23.3C657.6 24 655.8 26.5 653.2 28C647.9 31.1 644.2 35.7 641.7 40.9C638.5 47.5 634 52.3 627.7 55.8C623.4 58.2 619.2 60.7 616.2 64.8C614.9 66.6 614.1 68.5 614.9 70.6C615.8 72.8 618 72.5 619.8 72.6C620.2 72.7 620.6 72.7 620.9 72.7ZM1141.3 72.7C1151.3 71.6 1161.4 70.9 1170.2 65.6C1180 59.6 1189.5 53.3 1198.8 46.7C1204.2 42.9 1204.1 34.7 1199 30.7C1196.8 28.9 1194.5 27.3 1192.2 25.7C1186.5 21.6 1180 22.1 1174.9 27C1174.4 27.5 1173.9 28 1173.4 28.3C1168.1 31.1 1164.6 35.7 1162.1 40.7C1158.8 47.5 1154.1 52.5 1147.6 56.1C1143.5 58.3 1139.6 60.8 1136.7 64.6C1135.3 66.5 1134.2 68.5 1135.2 70.8C1136.1 73 1138.3 72.6 1140.2 72.7C1140.6 72.7 1140.9 72.7 1141.3 72.7ZM298.6 39.8C299.1 40.1 299.5 40.3 299.8 40.5C304.5 42.6 309.3 44.5 313.9 46.7C318.9 49.1 320.2 55.2 316.7 59.4C315.2 61.2 313.4 62.9 311.6 64.8C312.2 65.3 312.9 65.7 313.5 66.2C317.9 69.1 322.4 72 326.7 75C329.5 76.9 330.9 77.1 333.7 75.3C342.6 69.6 351.9 64.7 362.2 62C368.1 60.4 369.5 58.6 369.6 52.6C369.6 51.2 369.3 50.4 367.8 50.2C366.2 49.9 364.5 49.6 363 49C354.8 45.5 346.5 42.1 338.5 38.2C329.5 33.8 320.4 31.4 310.4 33.5C306 34.3 301.8 35.9 298.6 39.8ZM832.4 64.8C833.1 65.3 833.7 65.7 834.3 66.1C838.8 69.1 843.3 72 847.7 75C850.3 76.8 851.8 77 854.5 75.3C863.4 69.5 872.7 64.7 883 62C888.8 60.4 890 58.9 890.5 53.1C890.6 51.3 890.2 50.3 888.3 50C886.7 49.8 885.1 49.5 883.7 48.9C875.6 45.4 867.3 42.1 859.4 38.2C850.4 33.8 841.2 31.4 831.3 33.5C826.8 34.4 822.6 36 819.4 39.9C820.1 40.2 820.6 40.4 821 40.6C825.6 42.6 830.2 44.7 834.9 46.7C839.2 48.5 841.2 56.3 837.7 59.4C835.9 60.9 834.3 62.8 832.4 64.8ZM1339.6 39.8C1340.2 40.1 1340.5 40.3 1340.9 40.4C1345.6 42.5 1350.4 44.4 1355 46.6C1360 49 1361.3 55.1 1357.8 59.4C1356.3 61.2 1354.5 62.9 1352.7 64.7C1353.3 65.2 1354 65.6 1354.7 66.1C1359.1 69 1363.6 71.9 1367.9 74.9C1370.7 76.8 1372.1 77 1374.9 75.2C1383.8 69.5 1393.1 64.6 1403.4 61.9C1409.2 60.4 1410.7 58.5 1410.8 52.5C1410.8 51.1 1410.5 50.4 1409 50.1C1407.4 49.8 1405.7 49.5 1404.2 48.9C1396 45.4 1387.7 42 1379.7 38.1C1370.7 33.7 1361.5 31.3 1351.6 33.4C1346.9 34.4 1342.7 35.9 1339.6 39.8ZM981.5 67.8C978.3 65.8 975.7 64.4 973.4 62.6C969.4 59.6 965.5 56.4 961.6 53.1C959.9 51.7 958.5 51.8 956.7 52.7C948.2 56.9 939.5 60.9 931 65.2C926.9 67.2 923 69.6 919.1 72C918.3 72.5 918 73.7 917.5 74.5C918.4 74.9 919.2 75.5 920.1 75.6C926.4 75.9 932.6 75.3 938.4 73.1C944 70.9 949.5 70.7 955.2 72.2C958.7 73.1 962.1 74 965.6 74.8C966.5 75 967.7 75.2 968.5 74.8C972.7 72.6 976.9 70.2 981.5 67.8ZM460.8 67.8C457.7 65.9 455.1 64.5 452.8 62.8C448.8 59.8 444.9 56.5 441 53.3C439.3 51.8 437.8 51.8 435.9 52.8C425.7 57.9 415.4 62.8 405.1 67.9C402.8 69 400.6 70.5 398.6 72C397.8 72.6 397.4 73.6 396.8 74.5C397.7 74.9 398.6 75.8 399.5 75.7C405.6 75 411.9 74.9 417.6 73.2C423.5 71.4 429 70.9 434.9 72.4C438.3 73.3 441.6 74.1 445 74.9C445.9 75.1 447 75.3 447.7 75C451.9 72.6 456.2 70.3 460.8 67.8ZM440.6 49.9C443.1 51.8 445.5 53.4 447.7 55.3C451.9 58.9 456 62.7 461.1 65C461.9 65.3 463.1 65.6 463.7 65.2C469.9 60.9 471.8 54.7 469 47.9C467.5 44.2 465.8 40.5 464.4 36.7C463.2 33.2 460.9 31.3 457.3 31C452.3 30.5 447.2 30.3 442.1 30C441.5 30 440.9 30.1 439.9 30.2C443.9 36.7 448.3 43 440.6 49.9ZM961.2 29.5C961.1 29.8 960.9 30.1 960.8 30.4C964.7 36.8 969 43.2 961.3 49.9C963.8 51.8 966.2 53.4 968.4 55.3C972.6 58.9 976.7 62.7 981.8 65C982.6 65.3 983.8 65.6 984.4 65.2C990.8 60.7 992.5 54.6 989.5 47.4C987.9 43.7 986.5 39.9 985 36.1C984 33.5 982.3 31.6 979.5 31.2C973.4 30.5 967.3 30.1 961.2 29.5ZM1278.6 64.8C1278 60.9 1277.7 56.9 1276.7 53.1C1274.7 45.9 1269.5 42.1 1263.1 43C1260.9 43.3 1258.7 44.1 1256.7 45C1251.7 47.4 1249.1 53 1251.3 58.1C1253.3 62.9 1255.9 67.5 1258.7 71.8C1261 75.4 1268.1 77.1 1272.1 75.7C1275.4 74.5 1278.4 69.2 1278.6 64.8ZM237.5 63C236.9 59.6 236.6 56.1 235.7 52.8C233.6 45.7 228.5 42 222.2 42.9C220 43.2 217.9 44 215.9 44.9C210.8 47.3 208.4 52.9 210.5 58.2C212 61.9 214.2 65.4 216 69C218.1 73.4 221.9 75.3 226.4 76C229.6 76.5 232.3 75.6 234.5 72.9C236.9 70 237.8 66.8 237.5 63ZM758.3 64.8C757.7 60.8 757.4 56.7 756.3 52.9C754.3 45.8 749.1 42.1 742.8 43C740.6 43.3 738.5 44.1 736.5 45C731.5 47.4 729 53 731.1 58.1C733.1 62.9 735.7 67.4 738.5 71.8C740.8 75.3 748 77.1 751.9 75.7C755.2 74.5 758.2 69.1 758.3 64.8ZM46 69.4C52.3 69.7 58.3 71.1 64.4 69.4C70.9 67.5 73.4 63.5 71.9 56.9C71.1 53.5 65 48.6 61.9 49C59.9 49.3 56.1 53.4 56.5 58.2C56.5 58.3 56.5 58.4 56.5 58.4C56.1 59.4 55.9 60.7 55.2 61.3C52.3 64.1 49.2 66.6 46 69.4ZM566.8 69.3C568.1 69.4 569.2 69.6 570.2 69.7C575.2 69.9 580.3 71 585.3 69.3C592.7 66.7 594.2 63.2 592.1 55.7C591.3 52.9 584.9 48.7 582.5 49.1C580 49.5 577.3 54.3 577.1 58.2C577 59.4 576.4 60.9 575.6 61.7C572.9 64.3 569.9 66.7 566.8 69.3ZM1087.5 69.4C1093.7 69.6 1099.6 71.2 1105.6 69.3C1112 67.3 1114.4 63 1112.7 56.6C1111.9 53.5 1105.8 48.8 1103.2 49.1C1100.7 49.5 1097.9 54.3 1097.9 58.2C1097.9 58.3 1097.9 58.4 1097.9 58.4C1097.4 59.5 1097.2 60.8 1096.5 61.5C1093.7 64.2 1090.7 66.6 1087.5 69.4ZM817.6 41.6C817.3 43.7 816.9 45 816.9 46.2C817 52.4 820.3 56.7 825.2 60.1C830 63.5 831.6 63.2 835.2 58.4C835.4 58.1 835.5 57.8 835.7 57.6C837.6 54.9 837.1 50.7 834.2 49.2C829 46.6 823.6 44.3 817.6 41.6ZM1337.9 41.6C1337.6 43.6 1337.1 44.9 1337.1 46.2C1337.2 52.4 1340.5 56.7 1345.3 60.1C1350.2 63.5 1351.9 63.2 1355.5 58.4C1355.7 58.1 1355.8 57.8 1356 57.6C1357.8 55 1357.3 50.8 1354.5 49.4C1349.4 46.6 1343.9 44.3 1337.9 41.6ZM296.9 41.6C296.6 43.7 296.1 44.9 296.2 46.2C296.3 52.3 299.4 56.6 304.2 60C309.4 63.7 311.1 63.4 314.9 58.1C315 58 315.1 57.8 315.2 57.7C317.1 55 316.5 50.8 313.6 49.3C308.3 46.6 302.9 44.3 296.9 41.6ZM192.5 76.7C195.1 76.5 196.4 74.8 195.7 72C194.3 66.2 190.3 62.8 185.1 60.4C181.7 58.8 179.8 59.1 177.4 61.9C176.5 62.9 175.7 64 175 65.1C173.8 67.1 174.9 71.4 176.9 72C182.1 73.7 187.3 75.2 192.5 76.7ZM713.3 76.7C715.8 76.5 717.1 74.8 716.5 72.2C715.1 66.3 711 62.8 705.7 60.4C702.4 58.9 700.6 59.2 698.2 61.9C697.3 62.9 696.5 64 695.8 65.1C694.6 67.1 695.6 71.4 697.7 72C702.8 73.7 708.1 75.2 713.3 76.7ZM1233.6 76.8C1236.1 76.5 1237.3 74.8 1236.7 72.1C1235.3 66.2 1231.2 62.7 1225.9 60.3C1222.7 58.8 1220.9 59.1 1218.6 61.7C1217.7 62.7 1216.8 63.9 1216.1 65.1C1214.9 67 1215.9 71.2 1217.9 71.9C1222.9 73.7 1228.3 75.2 1233.6 76.8ZM959.1 48.4C963.9 44.7 964.1 41.5 961.4 36.3C960.6 34.8 959.7 33.3 958.6 31.9C958.2 31.3 957 30.8 956.4 31C953.2 32.3 950 33.7 947 35.4C944.7 36.8 944.6 38.5 946.3 40.6C947 41.5 947.9 42.4 948.8 42.9C952.3 44.8 955.7 46.6 959.1 48.4ZM438.4 48.5C443.2 44.5 443.3 41.4 440.6 36.2C439.8 34.7 439 33.3 437.9 32C437.4 31.4 436.1 30.8 435.5 31C432.5 32.2 429.5 33.4 426.8 35C423.9 36.7 423.8 38.6 426 41.1C426.6 41.8 427.3 42.4 428.1 42.9C431.5 44.8 435 46.6 438.4 48.5ZM282.2 73.4C282.3 73.8 282.4 74.2 282.5 74.7C283.8 74.9 285 75.1 286.3 75.2C288.9 75.3 291.4 75.3 294 75.4C302 75.6 310.1 75.8 318.1 75.9C319.3 75.9 320.5 75.4 321.7 75.1C321.7 74.9 321.7 74.6 321.7 74.4C317.8 71.9 313.9 69.3 309.9 66.9C309.3 66.5 308.1 66.7 307.4 67C300.9 70.3 294.4 73.2 286.8 72.1C285.4 71.8 283.7 72.9 282.2 73.4ZM842.3 75.1C842.3 74.8 842.3 74.6 842.4 74.3C839.5 72.4 836.5 70.6 833.8 68.5C831 66.4 828.7 66.2 825.5 67.9C820.6 70.6 815.4 73 809.4 71.8C808 71.5 806.4 72 805 72.4C804.2 72.6 803.6 73.4 803 73.9C803 74.1 803.1 74.4 803.1 74.6C804.3 74.8 805.4 75.1 806.6 75.2C808.3 75.3 809.9 75.2 811.6 75.3C820.6 75.5 829.5 75.7 838.5 75.9C839.8 75.8 841.1 75.4 842.3 75.1ZM1323.2 73.4C1323.3 73.8 1323.4 74.2 1323.4 74.7C1324.7 74.9 1325.9 75.1 1327.2 75.2C1329.9 75.3 1332.5 75.3 1335.2 75.4C1343.2 75.6 1351.1 75.8 1359.1 75.8C1360.3 75.8 1361.5 75.3 1362.7 75C1362.7 74.7 1362.7 74.5 1362.7 74.2C1358.8 71.7 1354.9 69.1 1350.9 66.7C1350.3 66.3 1349.1 66.4 1348.4 66.8C1341.9 70.1 1335.5 73.1 1327.8 71.9C1326.3 71.7 1324.7 72.9 1323.2 73.4ZM531.7 74.2C531.6 73.5 531.8 72.8 531.5 72.6C528.8 71 526.9 67.8 523.1 67.9C515.6 68.2 508.1 68.3 500.7 68.6C500.1 68.6 499 69.1 499 69.6C498.9 70.4 499 71.6 499.5 72C500.4 72.8 501.6 73.4 502.8 73.6C512.3 75.4 521.9 74.8 531.7 74.2ZM1052.4 74.2C1052.4 73.6 1052.5 72.9 1052.3 72.7C1049.5 71 1047.6 67.8 1043.7 67.9C1036.3 68.2 1028.9 68.3 1021.5 68.6C1020.8 68.6 1019.8 69.2 1019.7 69.7C1019.6 70.4 1019.8 71.7 1020.4 72.1C1021.5 72.9 1022.9 73.5 1024.2 73.7C1033.5 75.4 1042.9 74.8 1052.4 74.2ZM10.1 68.2C18.1 75.1 18.6 75.4 23.7 75.7C30.4 76.1 35.4 75.3 38.3 70.8C28.7 69.9 19.4 69 10.1 68.2ZM559.4 70.9C549.5 70 540.1 69.1 530.8 68.2C535 71.3 538.3 75.8 544.2 75.8C549.5 75.7 554.8 76 559.4 70.9ZM1051.5 68.2C1055.7 71.3 1059 75.8 1064.9 75.7C1070.2 75.7 1075.5 76 1080.1 70.9C1070.2 70 1060.9 69.1 1051.5 68.2ZM472.3 72.3C480.3 76.1 490.5 74.7 495.4 68.5C487.6 69.7 479.8 68.3 472.3 72.3ZM1016.3 68.5C1008.3 69.8 1000.5 68.2 993.3 72.3C1000.3 76 1010.7 74.9 1016.3 68.5ZM467.3 73C463.9 69 463.2 68.8 458.9 71.5C458.1 72 457.3 72.4 456.6 72.9C456 73.3 455.6 73.9 455 74.5C460.3 77 465.5 76.2 467.3 73ZM988 73C984.8 69 983.8 68.8 979.7 71.5C978.8 72.1 977.8 72.6 977 73.2C976.5 73.5 976.2 74 975.8 74.6C980.9 76.9 986.1 76.2 988 73ZM435.5 75.3C430.6 73.7 425.8 72.3 420.9 75.2C425.7 76.6 430.6 75.5 435.5 75.3ZM941.6 75.2C946.5 76.6 951.3 75.5 956.1 75.3C951.3 73.7 946.5 72.3 941.6 75.2Z" fill="#090012"/>
</g>
<defs>
<clipPath id="clip0_175_45">
<rect width="1440" height="79" fill="white"/>
</clipPath>
</defs>
</svg>
