<svg width="393" height="79" viewBox="0 0 393 79" fill="none" xmlns="http://www.w3.org/2000/svg">
<g clip-path="url(#clip0_218_96)">
<path d="M-458 6.00002C-453.6 6.20002 -449.3 6.80002 -445.4 9.40002C-438.3 14.3 -436.3 24.2 -440.8 31.5C-444.3 37.2 -447.8 43 -450 49.3C-451.6 53.9 -451.1 59.2 -451.4 64.3C-451.4 64.8 -450.3 65.7 -449.6 65.8C-439 66.9 -428.4 68 -417.9 69C-417.1 69.1 -416 68.9 -415.3 68.4C-411.9 65.9 -408.5 63.3 -405.3 60.6C-404.5 59.9 -404 58.5 -403.9 57.4C-403.7 53.3 -401.9 50 -398.6 47.7C-397.6 47 -395.9 46.6 -394.6 46.8C-386.7 48 -381.4 56.2 -383.7 64C-384.9 68 -388 70.2 -391.7 71.1C-395.6 72 -399.7 72.2 -403.7 72.4C-407.2 72.5 -410.7 72 -414.2 71.8C-416.4 71.6 -417.4 73.2 -418.6 74.4C-418.5 74.7 -418.5 75 -418.4 75.2C-416.6 75.2 -414.9 75.3 -413.1 75.2C-406.2 74.8 -399.4 74.4 -392.5 75.7C-383.1 77.5 -375.1 74.8 -368.8 67.5C-363.4 61.4 -357.1 56.5 -350 52.5C-345.3 49.8 -342.1 45.8 -340 40.6C-337.7 34.9 -333.6 30.2 -328.3 26.8C-327.6 26.4 -326.9 25.9 -326.4 25.2C-322.3 20.6 -316.8 19.7 -311.3 20.6C-308.1 21.1 -305.2 23.4 -302.3 25.1C-300.9 25.9 -299.7 27.2 -298.5 28.3C-293.2 32.7 -292.2 39.8 -295.9 45.9C-297.9 49.1 -301 50.9 -303.9 52.8C-312.7 58.5 -321.6 63.9 -330.5 69.4C-331.6 70.1 -332.8 70.8 -333.8 71.6C-334.4 72.1 -335.2 73.4 -334.9 73.7C-334.4 74.4 -333.4 75 -332.6 75C-327.9 75.1 -323.1 75 -318.4 74.9C-309.3 74.7 -300.1 74.4 -291 74.2C-288.3 74.2 -285.6 74.6 -282.3 74.9C-283.1 73.7 -283.5 73.1 -283.9 72.6C-286.7 68.7 -286.7 65.8 -284 61.9C-280.6 57 -277.7 56 -272.1 58.1C-266.6 60.2 -262.4 63.8 -260.4 69.5C-259.4 72.3 -257.5 74 -254.3 74C-251.9 74 -249.5 74.4 -247.1 74.6C-244.3 74.7 -243.1 72.8 -244.3 70.2C-246.2 66.2 -248.3 62.2 -249.9 58.1C-252.3 51.8 -248.3 44.3 -242.2 42.1C-240.3 41.4 -238.4 40.8 -236.5 40.5C-231.7 39.8 -227.6 40.8 -224.3 44.9C-220.8 49.3 -219 54 -218.6 59.4C-218.4 62.5 -217.9 65.5 -217.6 68.5C-217.2 72.4 -214.6 74.6 -211.3 74.9C-201.8 75.8 -192.2 76.9 -182.9 73.5C-179.5 72.2 -176.2 70.7 -172.7 69.6C-171.3 69.1 -169.7 69 -168.3 69.3C-161.9 70.5 -157.1 66.6 -151.2 64.6C-160.2 58.9 -166.5 52.3 -163.6 41C-165.3 40.1 -167.1 39.3 -166.8 36.8C-166.8 36.6 -167 36.3 -167.1 36.2C-170.6 33.9 -172.7 29.7 -177.5 29.4C-178.4 29.3 -179.3 29.1 -180.2 29C-182.5 28.5 -184.9 27.8 -185.5 25.4C-186.2 22.5 -186.1 19.4 -183.5 17.1C-182.4 16.1 -181 15.4 -180 14.3C-179 13.1 -178 11.7 -177.5 10.2C-177 8.40002 -176.1 7.40002 -174.4 6.70002C-172.3 5.80002 -170.4 4.50002 -168.4 3.50002C-167.4 3.00002 -166.3 2.50002 -165.1 2.40002C-154.8 1.10002 -144.6 -0.799983 -134.1 -0.0999826C-127 0.300017 -120 0.600018 -113.5 4.00002C-112.9 4.30002 -112.3 4.60002 -111.7 4.90002C-104.3 9.20002 -104.4 13.2 -108.3 18.6C-109.5 20.3 -109.6 22 -108.7 24C-105.4 30.8 -100.5 36.2 -94.5 40.7C-91.7 42.8 -89.1 45.2 -86.5 47.6C-84.8 49.2 -79.7 48.4 -77.7 46.1C-73.4 41.3 -70.3 36 -70.8 29.2C-70.9 28.1 -70.8 27 -70.7 26C-70.3 19.2 -65.5 14.7 -58.7 14.1C-49.8 13.3 -41.7 15.4 -34 19.5C-29.7 21.8 -25.5 24.3 -21.2 26.7C-20.2 27.2 -19 27.4 -17.9 27.4C-12.5 27.7 -7.10001 27.8 -1.70001 28C4.89999 28.2 8 32.5 10 38.1C11.2 41.4 12.6 44.7 13.7 48.1C16.1 55.2 14.5 60.7 8.70001 65.6C8.10001 66.1 7.60001 66.6 6.89999 67.3C8.60001 68.5 10.1 69.6 11.8 70.8C19.2 65.2 28.1 66.8 36.5 66C40.5 65.6 42.2 64.3 42.2 60.2C42.2 58.4 41.8 56.6 41.3 54.9C38.7 47.1 36.1 39.4 33.4 31.7C31.8 27.1 31.8 22.5 33.7 17.9C35.5 13.4 38.6 10.3 43.3 8.90002C51.2 6.60002 59.2 5.30002 67.4 6.30002C72.8 6.90002 77.2 9.20002 79.6 14.5C79.8 14.9 80 15.2 80.2 15.6C84.5 20.9 82.5 26.1 79.8 31.3C76.7 37.2 72.8 42.9 70.7 49.1C69.1 53.8 69.6 59.2 69.3 64.3C69.3 64.7 70.7 65.5 71.5 65.6C79.4 66.3 87.4 66.3 95.1 67.8C102 69.2 107.4 68 112.2 63.2C113.2 62.2 114.5 61.5 115.3 60.4C116 59.5 116.6 58.3 116.6 57.2C116.8 53.4 118.4 50.3 121.3 48C122.5 47.1 124.4 46.4 125.8 46.7C133.9 47.9 139.2 56 136.9 63.9C135.8 67.9 132.6 70.2 128.9 71.1C124.9 72.1 120.7 72.2 116.6 72.4C113.2 72.5 109.8 72 106.4 71.8C104.2 71.7 103.1 73.1 101.9 74.4C102 74.7 102 75 102.1 75.3C103.8 75.3 105.6 75.4 107.3 75.3C114.3 74.9 121.2 74.5 128.2 75.8C137.5 77.6 145.4 74.7 151.7 67.6C157 61.6 163.2 56.7 170.2 52.7C175 50 178.2 46 180.4 40.7C182.7 35 186.8 30.3 192.1 26.9C192.7 26.5 193.4 26.1 193.9 25.5C197.8 20.9 203.3 19.9 208.6 20.6C211.9 21.1 215 23.4 218.1 25.2C220 26.3 221.6 28 223.3 29.4C225.2 31 226.5 33 226.6 35.6C226.9 41.6 225.4 46.8 220.1 50.5C210 57.4 200.1 64.5 189.1 70C188 70.5 187 71.4 186.1 72.2C185.7 72.6 185.3 73.5 185.4 73.9C185.6 74.5 186.4 75 187 75.2C187.7 75.4 188.5 75.3 189.2 75.3C202.1 75 215 74.7 227.9 74.5C231 74.5 234.2 74.9 238 75.1C237.2 73.9 236.7 73.3 236.2 72.6C232.6 67.2 236.3 58 242.8 57.3C244.9 57 247.4 58 249.5 58.9C254.6 61.1 258.3 64.8 260.2 70C261.2 72.7 263 74.2 266 74.2C268.4 74.2 270.8 74.7 273.2 74.8C276.2 75 277.4 73 276.1 70.3C274.2 66.3 272.1 62.3 270.6 58.1C268.3 52 272.2 44.5 278.1 42.4C280.1 41.7 282.2 40.9 284.3 40.6C289.1 39.9 293.1 41 296.5 45.1C300.8 50.3 302 56.1 302.3 62.4C302.4 64.5 302.9 66.7 303.1 68.8C303.5 72.6 306.2 74.8 309.5 75.1C318.8 76 328.3 77.1 337.4 73.7C340.1 72.7 342.7 71.2 345.4 70.4C347.7 69.7 350.1 69.3 352.5 69.5C355.4 69.7 358.1 69.6 360.7 68.4C363.4 67.2 366.2 66.1 369 64.9C366.2 62.6 363.4 60.6 361.1 58.2C357 53.8 355.2 48.7 356.7 42.7C356.8 42.2 356.8 41.2 356.6 41.1C354.3 40.4 354.5 37.7 353.4 36.7C350.7 34.2 348.5 30.8 344.4 30C343.1 29.8 341.8 29.6 340.5 29.3C338.2 28.8 335.6 28 335.1 25.5C334.5 22.6 334.5 19.5 337.2 17.2C338.2 16.3 339.5 15.7 340.3 14.7C341.4 13.4 342.2 11.7 343.2 10.3C344 9.20002 344.8 7.80002 345.9 7.10002C347.9 5.70002 350.1 4.70002 352.3 3.60002C353.3 3.10002 354.5 2.70002 355.6 2.60002C365.8 1.30002 376 -0.499983 386.4 0.100017C393.6 0.500017 400.7 0.800018 407.2 4.30002C407.9 4.70002 408.7 5.10002 409.4 5.50002C415.8 9.70002 416.4 12.1 412.4 18.7C411.3 20.6 411.1 22.3 412.1 24.3C415.4 31.1 420.3 36.5 426.3 41C429 43.1 431.6 45.4 434.1 47.8C435.8 49.4 440.9 48.8 442.9 46.5C447.3 41.6 450.5 36.3 449.9 29.3C449.8 28 449.9 26.6 450 25.3C450.8 18.7 455.4 14.9 462.1 14.3C470.9 13.5 478.9 15.7 486.6 19.6C490.8 21.8 494.8 24.3 499 26.4C500.2 27 501.7 27.4 503.1 27.5C507.7 27.7 512.4 27.8 517.1 27.9C524.3 28 528.6 31.8 530.8 38.4C531.9 41.6 533.2 44.7 534.3 47.9C536.9 55.4 535.3 60.8 529.4 65.9C528.9 66.3 528.4 66.8 527.7 67.5C529.3 68.7 530.8 69.8 532.5 71C540.4 65.3 549.8 67 558.7 66.2C560.4 66 561.4 65.6 562.1 64C563.5 61 563.2 58.1 562.2 55.1C559.5 47.4 556.9 39.6 554.3 31.9C552.3 26.2 552.9 20.7 555.8 15.4C557.7 12 560.5 10.1 564 9.00002C571.8 6.60002 579.9 5.40002 588.1 6.40002C593.6 7.00002 598.1 9.40002 600.5 14.7C601 15.8 602 16.7 602.4 17.9C602.9 19.2 603.6 20.8 603.4 22.1C603 25.9 601.9 29.4 599.8 32.8C596.5 38.1 593.3 43.7 591.3 49.6C589.8 54.2 590.3 59.4 590 64.3C590 64.7 591.2 65.6 591.9 65.7C602.3 66.8 612.7 67.8 623.2 68.8C624.2 68.9 625.5 68.8 626.3 68.2C629.7 65.8 633 63.2 636.1 60.5C636.9 59.8 637.5 58.4 637.5 57.3C637.6 53.5 639.2 50.3 642.1 48C643.3 47.1 645.5 46.4 646.8 46.8C654 49.2 658.5 52.5 657.6 62.5C657.3 66.2 654.7 68.3 651.7 70C647.3 72.5 642.5 72.6 637.6 72.3C634.2 72.1 630.8 71.9 627.4 71.6C625.1 71.4 624 72.8 622.3 74.9C625.1 74.9 627.1 75 629.1 74.9C635.7 74.5 642.2 74.2 648.7 75.5C657.9 77.3 665.7 74.4 672 67.4C677.4 61.3 683.8 56.3 691 52.2C695.6 49.6 698.7 45.6 700.8 40.5C703.1 34.8 707.2 30.1 712.5 26.7C713.2 26.2 713.9 25.8 714.4 25.2C718.5 20.6 723.9 19.7 729.4 20.5C732.6 21 735.5 23.3 738.4 25C739.8 25.8 741 27.1 742.2 28.2C747.7 32.8 749 40.1 744.7 45.8C742.6 48.6 739.7 50.8 736.8 52.8C728 58.5 719.1 63.9 710.2 69.4C709 70.1 707.8 70.9 706.7 71.8C706.2 72.3 705.7 73.3 705.9 73.8C706.1 74.4 707.1 74.9 707.8 74.9C710.8 75 713.8 75 716.8 74.9C727.8 74.6 738.8 74.3 749.7 74.1C752.4 74.1 755.1 74.5 758.4 74.8C757.6 73.6 757.2 73.1 756.8 72.5C754 68.6 754 65.8 756.7 61.8C760.1 56.9 763 55.9 768.6 58C774.1 60.1 778.2 63.7 780.3 69.4C781.4 72.2 783.1 73.9 786.4 74C788.8 74 791.2 74.4 793.6 74.6C796.4 74.7 797.7 72.8 796.5 70.2C794.6 66.2 792.5 62.2 790.9 58.1C788.5 51.8 792.5 44.3 798.6 42.1C800.5 41.4 802.4 40.8 804.3 40.5C809.1 39.8 813.2 40.8 816.5 44.9C820 49.3 821.8 54 822.2 59.4C822.4 62.5 822.9 65.5 823.2 68.5C823.6 72.5 826.3 74.7 829.7 75C838.9 75.8 848.3 76.9 857.3 73.6C860.9 72.3 864.4 70.8 868 69.5C869.3 69.1 870.9 68.9 872.2 69.2C878.7 70.5 883.5 66.6 889.3 64.7C876.4 53.5 875.6 51.8 877.1 41C875.5 40.1 873.6 39.3 874 36.9C874 36.7 873.8 36.4 873.7 36.3C870.3 34.1 868.2 29.9 863.6 29.6C862.6 29.5 861.6 29.3 860.6 29.1C858.3 28.6 855.9 27.9 855.3 25.5C854.6 22.6 854.7 19.5 857.3 17.2C858.4 16.2 859.8 15.5 860.8 14.4C861.8 13.2 862.8 11.8 863.3 10.3C863.8 8.50002 864.7 7.50002 866.4 6.80002C868.5 5.90002 870.4 4.60002 872.4 3.60002C873.4 3.10002 874.5 2.60002 875.7 2.50002C886.1 1.10002 896.4 -0.699983 907 1.74344e-05C914 0.400017 921 0.800018 927.4 4.10002C928 4.40002 928.6 4.70002 929.2 5.00002C936.6 9.30002 936.5 13.3 932.7 18.7C931.5 20.4 931.4 22.1 932.3 24.1C935.6 30.9 940.5 36.3 946.5 40.8C949.3 42.9 951.9 45.3 954.5 47.7C956.2 49.3 961.3 48.5 963.3 46.2C967.7 41.3 970.7 35.9 970.2 29C970.1 27.2 970.3 25.3 970.7 23.6C971.8 18.4 975.4 15.2 980.9 14.4C981.7 16 981 16.7 979.5 17.2C975.2 18.5 973.2 21.6 972.8 25.8C972.6 28.1 972.4 30.4 972.4 32.7C972.6 39.9 968.1 44.6 963.5 49.3C962.6 50.2 960.8 50.4 959.4 50.7C958.1 51 956.8 50.9 955.3 51C955.1 52.6 955 54 954.8 55.5C954.2 59.2 952.5 61.9 948.7 63.2C942.7 65.2 936.9 67.4 930.9 69.5C929.1 70.1 928 71.2 928.3 73.2C928.6 75.3 930.2 75.7 932 75.8C945.6 77.1 959 75.4 972.3 72.5C975.3 71.8 978.2 70.4 981.7 69C981.1 70.5 980.6 71.6 980.2 72.6C980 73.2 979.7 74 979.9 74.6C980.4 76.1 981.1 77.5 982 79.5C501.4 79.5 21.7 79.5 -458 79.5C-458 77.8 -458 76.2 -458 74.5C-454.4 74.3 -450.8 74.1 -446.6 73.9C-447.2 72.9 -447.4 72.1 -447.9 71.7C-450.9 69.4 -453.7 66.8 -458 67.6C-458 66.8 -458 65.9 -458 65.1C-456.7 65.2 -455.4 65.2 -454 65.3C-454 63.3 -454.1 61.7 -454 60.1C-453.6 56.1 -453.9 51.8 -452.4 48.2C-449.9 42.1 -446.6 36.2 -443.1 30.5C-439.2 24.1 -440.7 15.5 -446.9 11.3C-450.3 9.10002 -454.1 8.70002 -458 8.50002C-458 7.70002 -458 6.90002 -458 6.00002ZM-22 50C-25.2 48.3 -27.8 46.9 -30.4 45.5C-33.4 43.8 -36 41.6 -35.7 37.7C-35.4 33.9 -32.3 32.5 -29.3 31.1C-27.4 30.2 -25.5 29.4 -23.6 28.5C-23.6 28.2 -23.5 28 -23.5 27.7C-29.5 24.8 -35.5 21.7 -41.6 19.1C-47.1 16.7 -53 16.2 -58.9 16.9C-64.5 17.5 -67.8 20.8 -68.2 26.4C-68.4 29 -68.6 31.5 -68.6 34.1C-68.7 39.9 -72.5 43.7 -75.7 47.9C-78.1 51 -81.5 51 -84.9 51.2C-85.1 51.2 -85.3 51.3 -85.7 51.5C-85.8 52.1 -85.8 52.6 -85.9 53.2C-86 59.3 -89 62.9 -95 64.5C-100.3 65.9 -105.5 68.1 -110.7 70C-112.3 70.6 -113.3 71.9 -112.7 73.5C-112.3 74.5 -111 75.8 -110 75.9C-105.5 76.4 -101 76.8 -96.6 76.6C-90.9 76.3 -85.2 75.4 -79.5 74.8C-71.3 74 -63.8 71.4 -56.5 67.3C-47.4 62.2 -38 57.6 -28.7 52.9C-26.7 51.9 -24.6 51.1 -22 50ZM498.6 50.1C495 48.1 491.9 46.6 489 44.7C483.4 41 483.7 35.4 489.5 32.1C490.1 31.7 490.9 31.5 491.5 31.2C493.4 30.4 495.2 29.5 497.1 28.7C497.2 28.4 497.2 28.2 497.3 27.9C491.3 25 485.4 21.9 479.3 19.3C473.7 16.9 467.8 16.3 461.7 17C456.4 17.6 453 20.9 452.6 26.1C452.4 28.7 452.2 31.4 452.2 34C452.2 39.7 448.5 43.5 445.4 47.7C443 50.9 439.5 51.1 436 51.2C435.8 51.2 435.5 51.3 435.3 51.4C435.2 51.5 435.2 51.6 435.1 51.7C435 51.9 435 52.2 435 52.4C435.1 59.1 432 63.4 425.2 64.6C425 64.6 424.7 64.7 424.5 64.8C419.8 66.5 415 68.2 410.3 70C408.7 70.6 407.7 71.9 408.3 73.5C408.7 74.5 410 75.8 411 75.9C415.5 76.4 420 76.8 424.4 76.6C430.1 76.3 435.8 75.4 441.5 74.8C449.7 74 457.3 71.4 464.5 67.3C472.5 62.7 480.8 58.5 489.1 54.2C491.9 52.7 495.1 51.5 498.6 50.1ZM-90.6 47.9C-90.4 47.6 -90.3 47.3 -90.1 46.9C-91.1 46.2 -92.1 45.5 -93.1 44.8C-99.2 40.9 -104.2 35.9 -108.2 29.9C-111.3 25.2 -113.3 20.7 -109.1 15.4C-107 12.8 -107.9 10.7 -110.7 8.70002C-115.5 5.10002 -121.1 3.70002 -126.9 3.00002C-138.7 1.60002 -150.3 3.10002 -162 4.40002C-163.6 4.60002 -165.2 5.30002 -166.7 5.90002C-168.3 6.50002 -169.9 7.20002 -171.3 8.10002C-172.8 9.00002 -174.7 10 -175.3 11.4C-176.4 14.2 -178 16.4 -180.6 18.1C-182.8 19.5 -183.7 21.8 -183.3 24.1C-182.9 26.4 -180.6 27.4 -178.5 27.4C-173.3 27.6 -169.5 30.5 -166.1 33.9C-165.3 34.7 -164.6 35.8 -164.2 36.9C-163.5 39 -162.6 39.3 -160.9 37.7C-159.4 36.3 -157.9 34.7 -156.1 33.8C-146.6 29.1 -136.6 28.8 -126.8 32.3C-119 35.1 -111.8 39.3 -104.2 42.6C-99.8 44.7 -95.2 46.2 -90.6 47.9ZM430.2 47.8C430.3 47.5 430.5 47.2 430.6 46.9C429.7 46.2 428.8 45.5 427.9 44.9C422.3 41.4 417.5 37 413.7 31.6C410 26.4 406.9 21.3 411.9 15C413.6 12.9 412.7 10.7 410.5 9.00002C405.6 5.30002 399.9 3.70002 393.9 3.00002C382.2 1.60002 370.7 3.10002 359.1 4.40002C357.6 4.60002 356.2 5.00002 354.8 5.50002C352.7 6.40002 350.6 7.30002 348.6 8.50002C347.4 9.20002 345.9 10.2 345.5 11.4C344.5 14.3 342.8 16.5 340.3 18.1C338.1 19.5 337.1 21.7 337.5 24.1C337.9 26.4 340.2 27.4 342.3 27.5C347.5 27.7 351.3 30.6 354.7 34C355.5 34.8 356.2 35.9 356.6 37C357.3 39.1 358.2 39.4 359.9 37.8C361.4 36.4 362.9 34.8 364.7 33.9C374.2 29.2 384.2 28.9 394 32.4C402 35.3 409.5 39.6 417.3 43C421.4 44.9 425.8 46.2 430.2 47.8ZM950.4 47.9C950.5 47.6 950.7 47.3 950.8 47C949.8 46.3 948.9 45.5 947.9 44.9C941.9 41.1 937 36.3 933 30.5C929.7 25.7 927.5 20.9 931.9 15.3C933.8 12.9 933 10.8 930.5 8.90002C925.6 5.20002 920 3.80002 914.1 3.00002C902.3 1.60002 890.7 3.10002 879 4.40002C877.5 4.60002 876.1 5.10002 874.7 5.60002C872.7 6.40002 870.7 7.20002 868.9 8.30002C867.6 9.10002 866 10.1 865.6 11.4C864.5 14.4 862.8 16.6 860.2 18.3C858 19.7 856.9 22.1 857.8 24.3C858.4 25.8 860.7 27.3 862.4 27.4C867.5 27.8 871.3 30.4 874.7 33.8C875.6 34.7 876.3 36 876.8 37.2C877.5 39 878.4 39.3 879.9 38C881.5 36.6 883 34.9 884.9 33.9C894.4 29.1 904.4 28.9 914.2 32.3C922.2 35.2 929.7 39.5 937.5 42.9C941.6 44.9 946 46.3 950.4 47.9ZM66.7 65.3C66.7 63.6 66.6 62 66.7 60.3C67.1 56.4 66.8 52.1 68.2 48.6C70.6 42.6 74 37 77.1 31.2C79.6 26.5 81.2 22.3 78 16.7C74.6 10.8 69.9 8.70002 63.8 8.60002C57.1 8.50002 50.6 9.40002 44.2 11.4C39.6 12.9 34.5 19.7 34.8 24.5C35 27.3 35.4 30.1 36.3 32.8C38.3 39.2 40.6 45.6 42.9 52C44.6 56.6 46 61.1 43 66.1C51.1 65.8 58.7 65.6 66.7 65.3ZM587.4 65.3C587.4 63.6 587.3 61.9 587.4 60.3C587.8 56.4 587.5 52.3 588.8 48.8C591.1 42.9 594.3 37.3 597.4 31.8C600.3 26.8 602.1 22.3 598.5 16.4C595.6 11.7 592 9.20002 586.9 8.80002C579.4 8.20002 572 9.30002 564.8 11.5C560.3 12.9 555.2 19.8 555.5 24.4C555.7 27.2 556.1 30 557 32.7C559.1 39.3 561.4 45.9 563.7 52.4C565.3 56.9 566.6 61.3 563.6 66.1C571.8 65.8 579.4 65.5 587.4 65.3ZM-357.6 72.7C-347.7 71.5 -337.4 70.9 -328.7 65.5C-318.9 59.5 -309.4 53.2 -300.1 46.5C-294.7 42.7 -295 34.5 -300 30.5C-302.3 28.6 -304.7 26.9 -307.3 25.3C-308.9 24.3 -310.8 23.1 -312.6 23C-317 22.6 -321.2 23.5 -324.3 27.2C-324.7 27.6 -325.2 28 -325.7 28.3C-330.9 31 -334.3 35.5 -336.7 40.4C-340.1 47.3 -344.7 52.6 -351.5 56.2C-355.7 58.4 -359.7 61 -362.5 64.9C-363.8 66.7 -364.7 68.7 -363.7 70.9C-362.8 72.9 -360.7 72.6 -358.9 72.7C-358.5 72.7 -358 72.7 -357.6 72.7ZM162.9 72.7C172.9 71.6 183.2 70.9 192 65.5C201.7 59.5 211.3 53.2 220.6 46.6C225.9 42.8 225.7 34.7 220.7 30.6C218.6 28.9 216.2 27.5 214.1 25.7C210.7 22.9 207.1 22.5 202.9 23.3C199.6 24 197.8 26.5 195.2 28C189.9 31.1 186.2 35.7 183.7 40.9C180.5 47.5 176 52.3 169.7 55.8C165.4 58.2 161.2 60.7 158.2 64.8C156.9 66.6 156.1 68.5 156.9 70.6C157.8 72.8 160 72.5 161.8 72.6C162.2 72.7 162.6 72.7 162.9 72.7ZM683.3 72.7C693.3 71.6 703.4 70.9 712.2 65.6C722 59.6 731.5 53.3 740.8 46.7C746.2 42.9 746.1 34.7 741 30.7C738.8 28.9 736.5 27.3 734.2 25.7C728.5 21.6 722 22.1 716.9 27C716.4 27.5 715.9 28 715.4 28.3C710.1 31.1 706.6 35.7 704.1 40.7C700.8 47.5 696.1 52.5 689.6 56.1C685.5 58.3 681.6 60.8 678.7 64.6C677.3 66.5 676.2 68.5 677.2 70.8C678.1 73 680.3 72.6 682.2 72.7C682.6 72.7 682.9 72.7 683.3 72.7ZM-159.4 39.8C-158.9 40.1 -158.5 40.3 -158.2 40.5C-153.5 42.6 -148.7 44.5 -144.1 46.7C-139.1 49.1 -137.8 55.2 -141.3 59.4C-142.8 61.2 -144.6 62.9 -146.4 64.8C-145.8 65.3 -145.1 65.7 -144.5 66.2C-140.1 69.1 -135.6 72 -131.3 75C-128.5 76.9 -127.1 77.1 -124.3 75.3C-115.4 69.6 -106.1 64.7 -95.8 62C-89.9 60.4 -88.5 58.6 -88.4 52.6C-88.4 51.2 -88.7 50.4 -90.2 50.2C-91.8 49.9 -93.5 49.6 -95 49C-103.2 45.5 -111.5 42.1 -119.5 38.2C-128.5 33.8 -137.6 31.4 -147.6 33.5C-152 34.3 -156.2 35.9 -159.4 39.8ZM374.4 64.8C375.1 65.3 375.7 65.7 376.3 66.1C380.8 69.1 385.3 72 389.7 75C392.3 76.8 393.8 77 396.5 75.3C405.4 69.5 414.7 64.7 425 62C430.8 60.4 432 58.9 432.5 53.1C432.6 51.3 432.2 50.3 430.3 50C428.7 49.8 427.1 49.5 425.7 48.9C417.6 45.4 409.3 42.1 401.4 38.2C392.4 33.8 383.2 31.4 373.3 33.5C368.8 34.4 364.6 36 361.4 39.9C362.1 40.2 362.6 40.4 363 40.6C367.6 42.6 372.2 44.7 376.9 46.7C381.2 48.5 383.2 56.3 379.7 59.4C377.9 60.9 376.3 62.8 374.4 64.8ZM881.6 39.8C882.2 40.1 882.5 40.3 882.9 40.4C887.6 42.5 892.4 44.4 897 46.6C902 49 903.3 55.1 899.8 59.4C898.3 61.2 896.5 62.9 894.7 64.7C895.3 65.2 896 65.6 896.7 66.1C901.1 69 905.6 71.9 909.9 74.9C912.7 76.8 914.1 77 916.9 75.2C925.8 69.5 935.1 64.6 945.4 61.9C951.2 60.4 952.7 58.5 952.8 52.5C952.8 51.1 952.5 50.4 951 50.1C949.4 49.8 947.7 49.5 946.2 48.9C938 45.4 929.7 42 921.7 38.1C912.7 33.7 903.5 31.3 893.6 33.4C888.9 34.4 884.7 35.9 881.6 39.8ZM523.5 67.8C520.3 65.8 517.7 64.4 515.4 62.6C511.4 59.6 507.5 56.4 503.6 53.1C501.9 51.7 500.5 51.8 498.7 52.7C490.2 56.9 481.5 60.9 473 65.2C468.9 67.2 465 69.6 461.1 72C460.3 72.5 460 73.7 459.5 74.5C460.4 74.9 461.2 75.5 462.1 75.6C468.4 75.9 474.6 75.3 480.4 73.1C486 70.9 491.5 70.7 497.2 72.2C500.7 73.1 504.1 74 507.6 74.8C508.5 75 509.7 75.2 510.5 74.8C514.7 72.6 518.9 70.2 523.5 67.8ZM2.79999 67.8C-0.300018 65.9 -2.90002 64.5 -5.20001 62.8C-9.20001 59.8 -13.1 56.5 -17 53.3C-18.7 51.8 -20.2 51.8 -22.1 52.8C-32.3 57.9 -42.6 62.8 -52.9 67.9C-55.2 69 -57.4 70.5 -59.4 72C-60.2 72.6 -60.6 73.6 -61.2 74.5C-60.3 74.9 -59.4 75.8 -58.5 75.7C-52.4 75 -46.1 74.9 -40.4 73.2C-34.5 71.4 -29 70.9 -23.1 72.4C-19.7 73.3 -16.4 74.1 -13 74.9C-12.1 75.1 -11 75.3 -10.3 75C-6.09998 72.6 -1.80002 70.3 2.79999 67.8ZM-17.4 49.9C-14.9 51.8 -12.5 53.4 -10.3 55.3C-6.09998 58.9 -2 62.7 3.10001 65C3.89999 65.3 5.10001 65.6 5.70001 65.2C11.9 60.9 13.8 54.7 11 47.9C9.5 44.2 7.79999 40.5 6.39999 36.7C5.19998 33.2 2.89999 31.3 -0.700012 31C-5.70001 30.5 -10.8 30.3 -15.9 30C-16.5 30 -17.1 30.1 -18.1 30.2C-14.1 36.7 -9.69998 43 -17.4 49.9ZM503.2 29.5C503.1 29.8 502.9 30.1 502.8 30.4C506.7 36.8 511 43.2 503.3 49.9C505.8 51.8 508.2 53.4 510.4 55.3C514.6 58.9 518.7 62.7 523.8 65C524.6 65.3 525.8 65.6 526.4 65.2C532.8 60.7 534.5 54.6 531.5 47.4C529.9 43.7 528.5 39.9 527 36.1C526 33.5 524.3 31.6 521.5 31.2C515.4 30.5 509.3 30.1 503.2 29.5ZM820.6 64.8C820 60.9 819.7 56.9 818.7 53.1C816.7 45.9 811.5 42.1 805.1 43C802.9 43.3 800.7 44.1 798.7 45C793.7 47.4 791.1 53 793.3 58.1C795.3 62.9 797.9 67.5 800.7 71.8C803 75.4 810.1 77.1 814.1 75.7C817.4 74.5 820.4 69.2 820.6 64.8ZM-220.5 63C-221.1 59.6 -221.4 56.1 -222.3 52.8C-224.4 45.7 -229.5 42 -235.8 42.9C-238 43.2 -240.1 44 -242.1 44.9C-247.2 47.3 -249.6 52.9 -247.5 58.2C-246 61.9 -243.8 65.4 -242 69C-239.9 73.4 -236.1 75.3 -231.6 76C-228.4 76.5 -225.7 75.6 -223.5 72.9C-221.1 70 -220.2 66.8 -220.5 63ZM300.3 64.8C299.7 60.8 299.4 56.7 298.3 52.9C296.3 45.8 291.1 42.1 284.8 43C282.6 43.3 280.5 44.1 278.5 45C273.5 47.4 271 53 273.1 58.1C275.1 62.9 277.7 67.4 280.5 71.8C282.8 75.3 290 77.1 293.9 75.7C297.2 74.5 300.2 69.1 300.3 64.8ZM-412 69.4C-405.7 69.7 -399.7 71.1 -393.6 69.4C-387.1 67.5 -384.6 63.5 -386.1 56.9C-386.9 53.5 -393 48.6 -396.1 49C-398.1 49.3 -401.9 53.4 -401.5 58.2C-401.5 58.3 -401.5 58.4 -401.5 58.4C-401.9 59.4 -402.1 60.7 -402.8 61.3C-405.7 64.1 -408.8 66.6 -412 69.4ZM108.8 69.3C110.1 69.4 111.2 69.6 112.2 69.7C117.2 69.9 122.3 71 127.3 69.3C134.7 66.7 136.2 63.2 134.1 55.7C133.3 52.9 126.9 48.7 124.5 49.1C122 49.5 119.3 54.3 119.1 58.2C119 59.4 118.4 60.9 117.6 61.7C114.9 64.3 111.9 66.7 108.8 69.3ZM629.5 69.4C635.7 69.6 641.6 71.2 647.6 69.3C654 67.3 656.4 63 654.7 56.6C653.9 53.5 647.8 48.8 645.2 49.1C642.7 49.5 639.9 54.3 639.9 58.2C639.9 58.3 639.9 58.4 639.9 58.4C639.4 59.5 639.2 60.8 638.5 61.5C635.7 64.2 632.7 66.6 629.5 69.4ZM359.6 41.6C359.3 43.7 358.9 45 358.9 46.2C359 52.4 362.3 56.7 367.2 60.1C372 63.5 373.6 63.2 377.2 58.4C377.4 58.1 377.5 57.8 377.7 57.6C379.6 54.9 379.1 50.7 376.2 49.2C371 46.6 365.6 44.3 359.6 41.6ZM879.9 41.6C879.6 43.6 879.1 44.9 879.1 46.2C879.2 52.4 882.5 56.7 887.3 60.1C892.2 63.5 893.9 63.2 897.5 58.4C897.7 58.1 897.8 57.8 898 57.6C899.8 55 899.3 50.8 896.5 49.4C891.4 46.6 885.9 44.3 879.9 41.6ZM-161.1 41.6C-161.4 43.7 -161.9 44.9 -161.8 46.2C-161.7 52.3 -158.6 56.6 -153.8 60C-148.6 63.7 -146.9 63.4 -143.1 58.1C-143 58 -142.9 57.8 -142.8 57.7C-140.9 55 -141.5 50.8 -144.4 49.3C-149.7 46.6 -155.1 44.3 -161.1 41.6ZM-265.5 76.7C-262.9 76.5 -261.6 74.8 -262.3 72C-263.7 66.2 -267.7 62.8 -272.9 60.4C-276.3 58.8 -278.2 59.1 -280.6 61.9C-281.5 62.9 -282.3 64 -283 65.1C-284.2 67.1 -283.1 71.4 -281.1 72C-275.9 73.7 -270.7 75.2 -265.5 76.7ZM255.3 76.7C257.8 76.5 259.1 74.8 258.5 72.2C257.1 66.3 253 62.8 247.7 60.4C244.4 58.9 242.6 59.2 240.2 61.9C239.3 62.9 238.5 64 237.8 65.1C236.6 67.1 237.6 71.4 239.7 72C244.8 73.7 250.1 75.2 255.3 76.7ZM775.6 76.8C778.1 76.5 779.3 74.8 778.7 72.1C777.3 66.2 773.2 62.7 767.9 60.3C764.7 58.8 762.9 59.1 760.6 61.7C759.7 62.7 758.8 63.9 758.1 65.1C756.9 67 757.9 71.2 759.9 71.9C764.9 73.7 770.3 75.2 775.6 76.8ZM501.1 48.4C505.9 44.7 506.1 41.5 503.4 36.3C502.6 34.8 501.7 33.3 500.6 31.9C500.2 31.3 499 30.8 498.4 31C495.2 32.3 492 33.7 489 35.4C486.7 36.8 486.6 38.5 488.3 40.6C489 41.5 489.9 42.4 490.8 42.9C494.3 44.8 497.7 46.6 501.1 48.4ZM-19.6 48.5C-14.8 44.5 -14.7 41.4 -17.4 36.2C-18.2 34.7 -19 33.3 -20.1 32C-20.6 31.4 -21.9 30.8 -22.5 31C-25.5 32.2 -28.5 33.4 -31.2 35C-34.1 36.7 -34.2 38.6 -32 41.1C-31.4 41.8 -30.7 42.4 -29.9 42.9C-26.5 44.8 -23 46.6 -19.6 48.5ZM-175.8 73.4C-175.7 73.8 -175.6 74.2 -175.5 74.7C-174.2 74.9 -173 75.1 -171.7 75.2C-169.1 75.3 -166.6 75.3 -164 75.4C-156 75.6 -147.9 75.8 -139.9 75.9C-138.7 75.9 -137.5 75.4 -136.3 75.1C-136.3 74.9 -136.3 74.6 -136.3 74.4C-140.2 71.9 -144.1 69.3 -148.1 66.9C-148.7 66.5 -149.9 66.7 -150.6 67C-157.1 70.3 -163.6 73.2 -171.2 72.1C-172.6 71.8 -174.3 72.9 -175.8 73.4ZM384.3 75.1C384.3 74.8 384.3 74.6 384.4 74.3C381.5 72.4 378.5 70.6 375.8 68.5C373 66.4 370.7 66.2 367.5 67.9C362.6 70.6 357.4 73 351.4 71.8C350 71.5 348.4 72 347 72.4C346.2 72.6 345.6 73.4 345 73.9C345 74.1 345.1 74.4 345.1 74.6C346.3 74.8 347.4 75.1 348.6 75.2C350.3 75.3 351.9 75.2 353.6 75.3C362.6 75.5 371.5 75.7 380.5 75.9C381.8 75.8 383.1 75.4 384.3 75.1ZM865.2 73.4C865.3 73.8 865.4 74.2 865.4 74.7C866.7 74.9 867.9 75.1 869.2 75.2C871.9 75.3 874.5 75.3 877.2 75.4C885.2 75.6 893.1 75.8 901.1 75.8C902.3 75.8 903.5 75.3 904.7 75C904.7 74.7 904.7 74.5 904.7 74.2C900.8 71.7 896.9 69.1 892.9 66.7C892.3 66.3 891.1 66.4 890.4 66.8C883.9 70.1 877.5 73.1 869.8 71.9C868.3 71.7 866.7 72.9 865.2 73.4ZM73.7 74.2C73.6 73.5 73.8 72.8 73.5 72.6C70.8 71 68.9 67.8 65.1 67.9C57.6 68.2 50.1 68.3 42.7 68.6C42.1 68.6 41 69.1 41 69.6C40.9 70.4 41 71.6 41.5 72C42.4 72.8 43.6 73.4 44.8 73.6C54.3 75.4 63.9 74.8 73.7 74.2ZM594.4 74.2C594.4 73.6 594.5 72.9 594.3 72.7C591.5 71 589.6 67.8 585.7 67.9C578.3 68.2 570.9 68.3 563.5 68.6C562.8 68.6 561.8 69.2 561.7 69.7C561.6 70.4 561.8 71.7 562.4 72.1C563.5 72.9 564.9 73.5 566.2 73.7C575.5 75.4 584.9 74.8 594.4 74.2ZM-447.9 68.2C-439.9 75.1 -439.4 75.4 -434.3 75.7C-427.6 76.1 -422.6 75.3 -419.7 70.8C-429.3 69.9 -438.6 69 -447.9 68.2ZM101.4 70.9C91.5 70 82.1 69.1 72.8 68.2C77 71.3 80.3 75.8 86.2 75.8C91.5 75.7 96.8 76 101.4 70.9ZM593.5 68.2C597.7 71.3 601 75.8 606.9 75.7C612.2 75.7 617.5 76 622.1 70.9C612.2 70 602.9 69.1 593.5 68.2ZM14.3 72.3C22.3 76.1 32.5 74.7 37.4 68.5C29.6 69.7 21.8 68.3 14.3 72.3ZM558.3 68.5C550.3 69.8 542.5 68.2 535.3 72.3C542.3 76 552.7 74.9 558.3 68.5ZM9.29999 73C5.89999 69 5.19998 68.8 0.899994 71.5C0.100006 72 -0.699982 72.4 -1.39999 72.9C-2 73.3 -2.39999 73.9 -3 74.5C2.29999 77 7.5 76.2 9.29999 73ZM530 73C526.8 69 525.8 68.8 521.7 71.5C520.8 72.1 519.8 72.6 519 73.2C518.5 73.5 518.2 74 517.8 74.6C522.9 76.9 528.1 76.2 530 73ZM-22.5 75.3C-27.4 73.7 -32.2 72.3 -37.1 75.2C-32.3 76.6 -27.4 75.5 -22.5 75.3ZM483.6 75.2C488.5 76.6 493.3 75.5 498.1 75.3C493.3 73.7 488.5 72.3 483.6 75.2Z" fill="#090012"/>
</g>
<defs>
<clipPath id="clip0_218_96">
<rect width="393" height="79" fill="white"/>
</clipPath>
</defs>
</svg>
