<svg width="34" height="34" viewBox="0 0 34 34" fill="none" xmlns="http://www.w3.org/2000/svg">
<path d="M25.6522 17.4553C26.0571 16.9202 26.2813 16.2647 26.2813 15.5826C26.2813 14.5004 25.6763 13.4761 24.7026 12.9049C24.4519 12.7579 24.1665 12.6805 23.8759 12.6808H18.0964L18.241 9.71867C18.2747 9.00286 18.0216 8.32319 17.53 7.80501C17.2887 7.5496 16.9976 7.34639 16.6746 7.20793C16.3517 7.06947 16.0038 6.99871 15.6525 7.00002C14.3992 7.00002 13.2905 7.84357 12.9579 9.05106L10.8876 16.5466H7.77125C7.34465 16.5466 7 16.8913 7 17.3179V26.0909C7 26.5175 7.34465 26.8621 7.77125 26.8621H22.2635C22.4853 26.8621 22.7022 26.8187 22.9022 26.732C24.0494 26.2427 24.7894 25.122 24.7894 23.8783C24.7894 23.5747 24.746 23.2758 24.6592 22.9866C25.0641 22.4515 25.2883 21.796 25.2883 21.1139C25.2883 20.8102 25.2449 20.5114 25.1581 20.2221C25.563 19.6871 25.7872 19.0315 25.7872 18.3494C25.7823 18.0458 25.739 17.7445 25.6522 17.4553ZM8.73531 25.1268V18.282H10.6875V25.1268H8.73531ZM24.0735 16.619L23.5457 17.0769L23.8807 17.6891C23.9911 17.8907 24.0483 18.1172 24.047 18.347C24.047 18.7447 23.8735 19.1231 23.5746 19.3834L23.0468 19.8413L23.3818 20.4535C23.4922 20.6552 23.5494 20.8816 23.5481 21.1115C23.5481 21.5092 23.3746 21.8876 23.0757 22.1478L22.5479 22.6058L22.8829 23.218C22.9933 23.4196 23.0505 23.646 23.0492 23.8759C23.0492 24.4158 22.7311 24.9027 22.2394 25.1244H12.23V18.2048L14.6281 9.51622C14.69 9.29352 14.8227 9.09705 15.0063 8.95657C15.1898 8.8161 15.4141 8.73927 15.6452 8.73774C15.8284 8.73774 16.0092 8.79076 16.1538 8.89922C16.3924 9.07757 16.5201 9.34751 16.5057 9.63432L16.2743 14.4161H23.8518C24.2808 14.6788 24.5459 15.1222 24.5459 15.5826C24.5459 15.9803 24.3724 16.3562 24.0735 16.619Z" fill="#090012"/>
</svg>
