<svg width="34" height="34" viewBox="0 0 34 34" fill="none" xmlns="http://www.w3.org/2000/svg">
<path d="M17 5.44434C12.5833 5.44434 9 8.85489 9 13.0554C9 17.8888 14.3333 25.5482 16.2917 28.1938C16.373 28.3055 16.4795 28.3963 16.6026 28.459C16.7257 28.5216 16.8619 28.5543 17 28.5543C17.1381 28.5543 17.2743 28.5216 17.3974 28.459C17.5205 28.3963 17.627 28.3055 17.7083 28.1938C19.6667 25.5493 25 17.8927 25 13.0554C25 8.85489 21.4167 5.44434 17 5.44434Z" stroke="#090012" stroke-width="1.77778" stroke-linecap="round" stroke-linejoin="round"/>
<path d="M17.0002 16.111C18.4729 16.111 19.6668 14.9171 19.6668 13.4443C19.6668 11.9716 18.4729 10.7777 17.0002 10.7777C15.5274 10.7777 14.3335 11.9716 14.3335 13.4443C14.3335 14.9171 15.5274 16.111 17.0002 16.111Z" stroke="#090012" stroke-width="1.77778" stroke-linecap="round" stroke-linejoin="round"/>
</svg>
