<svg width="993" height="118" viewBox="0 0 993 118" fill="none" xmlns="http://www.w3.org/2000/svg">
<path d="M631.923 58.7881L672.768 23.3027L678.101 29.9697L660.012 45.3779L644.288 59.7227L685.146 112.776L678.413 117.826L637.718 65.1348L631.933 69.6807L632.401 116.77H623.984L623.559 77.0801L618.849 81.3633L613.68 74.8154L623.504 66.1543V0H631.923V58.7881ZM65.1016 41.4121L11.9629 108.199H65.1016V116.77H0V108.352H1.34473L52.6973 43.5225H0V34.9521H65.1016V41.4121ZM118.228 35.0703L119.894 35.626L128.697 41.5488L129.445 42.2969L129.557 42.4512L133.879 48.4844V34.9521H142.298V116.77H133.879V103.689L129.505 109.34L129.313 109.586L129.064 109.773L128.457 110.229L128.409 110.265L128.36 110.298L120.002 115.921L119.777 116.071L119.523 116.167L118.308 116.622L117.916 116.77H101.014L100.658 116.651L99.291 116.195L98.9531 116.083L90.9141 110.251L90.7666 110.144L90.0879 109.465L90.0049 109.36L83.4736 101.118L83.3662 100.904L81.293 96.7578L81.2344 96.5479L77.5869 83.6309L77.5771 83.5977L77.5693 83.5635L77.417 82.9551L77.3477 82.6797V68.7383L77.5693 67.8545L77.585 67.791L77.6045 67.7285L81.8594 54.0518L81.8867 53.9648L81.9199 53.8799L82.2246 53.1201L82.332 52.8496L89.9502 42.4326L90.0557 42.2891L90.7666 41.5781L90.9141 41.4707L98.665 35.8486L98.9531 35.6387L99.291 35.5264L100.658 35.0703L101.014 34.9521H117.872L118.228 35.0703ZM185.259 42.4385L185.508 42.1064L185.717 41.8291L185.997 41.624L189.341 39.1934L189.423 39.1328L190.271 38.624L190.336 38.585L190.405 38.5498L196.533 35.4072L196.751 35.3447L198.126 34.9521H210.1L210.348 35.0068L211.715 35.3115L212.043 35.3838L217.807 38.5859L217.84 38.6045L217.873 38.624L218.862 39.2178L219.054 39.4043L224.589 44.7812L224.744 45.0391L225.2 45.7988L225.291 45.9512L229.264 55.6836L221.395 58.9629L217.337 49.5586L212.877 45.3682L208.786 43.0664H199.562L194.614 45.3398L192.214 47.1074L185.259 56.8447V116.77H176.84V68.6602L170.621 77.4082L164.331 72.167L176.84 54.459V34.9521H185.259V42.4385ZM279.427 35.626L288.045 41.4238L288.231 41.5488L288.979 42.2969L293.412 48.4844V34.9521H301.831V116.77H293.412V103.69L288.848 109.586L287.99 110.229L287.942 110.265L287.894 110.298L279.535 115.921L279.311 116.071L279.058 116.167L277.842 116.622L277.449 116.77H260.548L260.191 116.651L258.824 116.195L258.486 116.083L250.448 110.251L250.3 110.144L249.621 109.465L249.538 109.36L243.007 101.118L242.9 100.904L240.827 96.7578L240.768 96.5479L237.12 83.6309L237.111 83.5977L237.103 83.5635L236.95 82.9551L236.882 82.6797V68.7383L236.95 68.4619L237.103 67.8545L237.118 67.791L237.138 67.7285L241.393 54.0518L241.42 53.9648L241.454 53.8799L241.866 52.8496L249.484 42.4326L249.589 42.2891L250.3 41.5781L250.448 41.4707L258.198 35.8486L258.486 35.6387L258.824 35.5264L260.191 35.0703L260.548 34.9521H277.405L279.427 35.626ZM414.622 35.626L414.883 35.8018L423.427 41.5488L424.175 42.2969L428.607 48.4844V34.9521H437.026V116.77H428.607V103.69L424.043 109.586L423.186 110.229L423.138 110.265L423.089 110.298L414.73 115.921L414.506 116.071L414.253 116.167L413.037 116.622L412.645 116.77H395.743L395.387 116.651L394.02 116.195L393.682 116.083L385.644 110.251L385.495 110.144L384.816 109.465L384.733 109.36L378.202 101.118L378.096 100.904L376.022 96.7578L375.963 96.5479L372.315 83.6309L372.307 83.5977L372.298 83.5635L372.146 82.9551L372.077 82.6797V68.7383L372.146 68.4619L372.298 67.8545L372.313 67.791L372.333 67.7285L376.588 54.0518L376.615 53.9648L376.649 53.8799L377.062 52.8496L384.68 42.4326L384.784 42.2891L385.495 41.5781L385.644 41.4707L393.394 35.8486L393.682 35.6387L394.02 35.5264L395.387 35.0703L395.743 34.9521H412.601L414.622 35.626ZM479.987 42.4395L480.445 41.8291L480.726 41.624L484.069 39.1934L484.152 39.1328L484.239 39.0801L484.999 38.624L485.065 38.585L485.134 38.5498L491.061 35.5107L491.262 35.4072L491.479 35.3447L492.854 34.9521H504.829L505.076 35.0068L506.444 35.3115L506.771 35.3838L512.535 38.5859L512.569 38.6045L512.603 38.624L513.362 39.0801L513.591 39.2178L513.783 39.4043L519.317 44.7812L519.473 45.0391L519.929 45.7988L520.02 45.9512L520.087 46.1143L523.992 55.6836L516.123 58.9629L512.065 49.5566L507.607 45.3691L503.515 43.0664H494.291L489.343 45.3398L486.942 47.1074L479.987 56.8447V116.77H471.568V68.6602L465.35 77.4082L459.061 72.167L471.568 54.4609V34.9521H479.987V42.4395ZM574.155 35.626L574.416 35.8018L582.96 41.5488L583.708 42.2969L588.142 48.4844V34.9521H596.56V116.77H588.142V103.689L583.768 109.34L583.576 109.586L583.327 109.773L582.672 110.265L582.622 110.298L574.265 115.921L574.039 116.071L573.786 116.167L572.57 116.622L572.178 116.77H555.276L553.215 116.083L545.177 110.251L545.029 110.144L544.444 109.559L544.35 109.465L544.267 109.36L537.736 101.118L537.629 100.904L535.556 96.7578L535.496 96.5479L531.85 83.6309L531.84 83.5977L531.831 83.5635L531.68 82.9551L531.61 82.6797V68.7383L531.68 68.4619L531.831 67.8545L531.847 67.791L531.866 67.7285L536.122 54.0518L536.148 53.9648L536.183 53.8799L536.595 52.8496L544.213 42.4326L544.318 42.2891L545.029 41.5781L545.177 41.4707L552.927 35.8486L553.215 35.6387L555.276 34.9521H572.134L574.155 35.626ZM729.426 35.5264L729.749 35.6348L739.16 42.2871L746.787 52.9336L746.869 53.0967L747.325 54.0088L747.435 54.2266L747.495 54.4629L750.839 67.3799L750.912 67.665V73.915H695.597V81.4531L699.348 94.1504L706.058 103.858L712.428 108.503H726.308L733.112 103.832L741.106 92.1895L748.195 96.5771L739.739 109.353L739.61 109.546L739.446 109.711L738.687 110.471L738.5 110.656L738.277 110.796L729.768 116.114L729.458 116.309L729.104 116.396L727.888 116.7L727.611 116.77H710.845L708.772 116.079L699.976 109.562L692.157 98.5527L692.055 98.2979L691.751 97.5381L691.711 97.4385L691.681 97.335L687.273 82.4434L687.179 82.1221V68.8896L687.247 68.6143L687.399 68.0068L687.417 67.9385L687.438 67.8711L691.997 53.4346L692.113 53.0645L700.449 41.8428L700.722 41.6406L708.77 35.6436L710.845 34.9521H727.702L729.426 35.5264ZM774.658 116.77H766.088V0H774.658V116.77ZM816.322 116.77H808.056V43.5225H793.315V34.9521H816.322V116.77ZM880.872 35.0703L882.537 35.626L882.798 35.8018L891.342 41.5488L892.09 42.2969L896.523 48.4844V34.9521H904.941V116.77H896.523V103.689L892.149 109.34L891.958 109.586L891.709 109.773L891.054 110.265L891.004 110.298L882.646 115.921L882.422 116.071L882.168 116.167L880.952 116.622L880.561 116.77H863.658L861.597 116.083L853.559 110.251L853.411 110.144L852.826 109.559L852.731 109.465L852.649 109.36L846.118 101.118L846.011 100.904L843.938 96.7578L843.878 96.5479L840.231 83.6309L840.222 83.5977L840.213 83.5635L840.062 82.9551L839.992 82.6797V68.7383L840.062 68.4619L840.213 67.8545L840.229 67.791L840.249 67.7285L844.504 54.0518L844.53 53.9648L844.564 53.8799L844.977 52.8496L852.595 42.4326L852.7 42.2891L853.411 41.5781L853.559 41.4707L861.309 35.8486L861.597 35.6387L863.658 34.9521H880.516L880.872 35.0703ZM942.584 43.5654L945.26 40.7031L945.423 40.5811L946.03 40.125L946.197 40L946.384 39.9072L955.197 35.5L955.39 35.4043L955.596 35.3447L956.971 34.9521H970.23L971.845 35.4131L972.063 35.5312L980.424 40.0205L980.563 40.125L981.171 40.5811L981.364 40.7256L987.906 48.2021L987.963 48.2676L988.016 48.3369L988.644 49.1748L988.754 49.4395L992.25 57.7979L992.353 58.0449L992.396 58.3096L992.549 59.2207L992.58 59.4092V116.77H984.162V60.2324L981.003 52.9541L975.586 46.8428L969.01 43.2188H958.152L950.988 46.8682L944.984 53.7295L942.584 57.1396V116.77H934.165V69.2734L927.601 78.7568L920.065 74.498L934.165 54.167V34.9521H942.584V43.5654ZM678.85 114.612L681.889 112.332L678.85 114.611L638.123 61.8799L678.85 114.612ZM135.276 97.7441L134.973 98.5039L127.678 107.926L127.07 108.381L118.712 114.004L117.496 114.46H117.497L118.713 114.004L127.07 108.382L127.679 107.926L134.973 98.5039L135.277 97.7441L136.188 94.8564L135.276 97.7441ZM193.435 43.3398L190.547 45.4678L182.948 56.1055V114.46H182.949V56.1055L190.547 45.4678L193.435 43.3408L199.057 40.7568L193.435 43.3398ZM488.163 43.3398L485.275 45.4678L477.677 56.1055V114.46H477.678V56.1055L485.275 45.4678L488.163 43.3408L493.786 40.7568H493.785L488.163 43.3398ZM629.612 68.5664L630.068 114.46L629.613 68.5664L638.123 61.8799L629.612 68.5664ZM890.322 107.926L889.715 108.381L881.356 114.004L880.141 114.46H880.142L881.357 114.004L889.715 108.382L890.323 107.926L897.617 98.5039L890.322 107.926ZM936.475 61.8809V114.46H936.476V61.8799L936.475 61.8809ZM295.722 94.8594V114.46H295.723V94.8564L295.722 94.8594ZM251.805 108.382L259.555 114.004L251.805 108.381L251.349 107.926L251.805 108.382ZM286.604 108.381L278.246 114.004L286.604 108.382L287.212 107.926L286.604 108.381ZM387 108.382L394.75 114.004L387 108.381L386.544 107.926L387 108.382ZM421.8 108.381L413.441 114.004L421.8 108.382L422.407 107.926L421.8 108.381ZM581.94 107.926L581.333 108.381L572.975 114.004L581.333 108.382L581.941 107.926L589.235 98.5039L581.94 107.926ZM546.533 108.382L554.283 114.004L546.533 108.381L546.077 107.926L546.533 108.382ZM854.915 108.382L862.665 114.004L854.915 108.381L854.459 107.926L854.915 108.382ZM92.2705 108.382L95.1504 110.471L92.2705 108.381L91.8145 107.926L92.2705 108.382ZM96.3643 47.7168L89.5029 57.1504L85.7666 69.3662V82.082L88.3975 91.585L89.7705 95.5664L96.1748 103.819L102.597 108.503H116.477L123.333 103.798L129.845 95.3027L133.879 82.0527V69.5498L129.705 57.0283L122.993 47.8887L116.296 43.0664H102.61L96.3643 47.7168ZM255.897 47.7168L249.037 57.1504L245.3 69.3691V82.082L247.931 91.585L249.304 95.5664L255.708 103.819L262.131 108.503H276.011L282.866 103.798L289.38 95.3008L293.412 82.0527V69.5479L289.238 57.0283L282.528 47.8896L275.829 43.0664H262.144L255.897 47.7168ZM391.093 47.7168L384.232 57.1504L380.495 69.3691V82.082L383.126 91.585L384.499 95.5664L390.903 103.819L397.326 108.503H411.206L418.062 103.798L424.575 95.3008L428.607 82.0527V69.5479L424.434 57.0283L417.724 47.8896L411.024 43.0664H397.339L391.093 47.7168ZM550.626 47.7168L543.766 57.1504L540.028 69.3691V82.0781L542.664 91.5996L544.032 95.5654L550.438 103.819L556.859 108.503H570.739L577.597 103.796L584.107 95.3027L588.142 82.0498V69.5508L583.967 57.0264L577.257 47.8896L570.559 43.0664H556.872L550.626 47.7168ZM859.01 47.7148L852.147 57.1504L848.411 69.3662V82.082L851.046 91.5986L852.416 95.5684L858.819 103.819L865.241 108.503H879.121L885.979 103.796L892.489 95.3027L896.523 82.0498V69.5508L892.349 57.0264L885.639 47.8896L878.94 43.0664H865.254L859.01 47.7148ZM94.7021 46.0762L87.4072 56.1055L83.4561 69.0225V82.3955L86.1914 92.2734L87.7109 96.6797L94.5498 105.494L87.7119 96.6797L86.1924 92.2734L83.457 82.3955V69.0225L87.4082 56.1055L94.7021 46.0762L101.845 40.7568H101.844L94.7021 46.0762ZM295.722 69.1748V82.3955L291.467 96.376H291.468L295.723 82.3955V69.1748L291.315 55.9531L295.722 69.1748ZM426.662 96.376H426.663H426.662ZM846.101 69.0225V82.3955L848.836 92.2734L850.356 96.6797L848.837 92.2734L846.102 82.3955V69.0225L850.052 56.1055L846.101 69.0225ZM239.343 83.0029H239.344H239.343ZM374.538 83.0029H374.539H374.538ZM619.127 77.9883L625.813 71.9102L626.052 94.1504L625.813 71.9092L619.127 77.9883ZM936.475 54.8896H936.476V37.2617H936.475V54.8896ZM239.343 68.415L239.191 69.0225L239.344 68.4141L243.599 54.7373L239.343 68.415ZM374.538 68.415L374.387 69.0225L374.539 68.4141L378.794 54.7373L374.538 68.415ZM706.046 48.0176L699.33 57.3047L696.729 65.6494H741.416L739.321 56.9365L732.678 47.749L726.148 43.2188H712.444L706.046 48.0176ZM629.612 63.8555L629.613 63.8545V2.30957H629.612V63.8555ZM658.486 43.6436L641.162 59.4482L658.486 43.6445L674.898 29.6631L658.486 43.6436ZM127.678 43.7959L134.973 53.9775L135.276 54.5859L136.188 57.3213L135.277 54.5859L134.973 53.9775L127.679 43.7959L127.45 43.5674L127.678 43.7959ZM295.722 57.3184L295.723 57.3213V37.2617H295.722V57.3184ZM734.317 46.0762L741.46 55.9531L734.318 46.0762L726.872 40.9092H726.871L734.317 46.0762ZM581.94 43.7959L589.235 53.9775L581.941 43.7959L581.713 43.5674L581.94 43.7959ZM890.322 43.7959L896.869 52.9336L890.323 43.7959L890.095 43.5674L890.322 43.7959ZM182.948 49.7227L182.949 49.7207V37.2617H182.948V49.7227ZM477.677 49.7227L477.678 49.7207V37.2617H477.677V49.7227ZM512.173 41.0605L517.492 46.2275L512.174 41.0605L511.667 40.7568L512.173 41.0605ZM505.942 37.5654L508.669 39.0801L505.943 37.5654L504.575 37.2617L505.942 37.5654ZM816.322 25.2871H807.904V6.0791H816.322V25.2871Z" fill="url(#paint0_linear_116_97)"/>
<defs>
<linearGradient id="paint0_linear_116_97" x1="-0.249023" y1="39.96" x2="992.751" y2="117.46" gradientUnits="userSpaceOnUse">
<stop stop-color="#B91257"/>
<stop offset="0.078135" stop-color="#AB136C"/>
<stop offset="0.162307" stop-color="#921AA5"/>
<stop offset="0.253613" stop-color="#7515D5"/>
<stop offset="0.387718" stop-color="#6614F7"/>
<stop offset="0.494716" stop-color="#7F1FF7"/>
<stop offset="0.551782" stop-color="#982AF8"/>
<stop offset="0.614555" stop-color="#B32EF7"/>
<stop offset="0.717274" stop-color="#8626F0"/>
<stop offset="0.77434" stop-color="#7523DF"/>
<stop offset="0.815712" stop-color="#6F23D7"/>
<stop offset="0.875632" stop-color="#8126E7"/>
<stop offset="0.934124" stop-color="#DF38F7"/>
<stop offset="1" stop-color="#F765F8"/>
</linearGradient>
</defs>
</svg>
