<svg width="34" height="34" viewBox="0 0 34 34" fill="none" xmlns="http://www.w3.org/2000/svg">
<path fill-rule="evenodd" clip-rule="evenodd" d="M27.2669 8.19992H6.73334C6.53885 8.19992 6.35232 8.27718 6.21479 8.41471C6.07726 8.55224 6 8.73877 6 8.93326V25.0667C6 25.2612 6.07726 25.4478 6.21479 25.5853C6.35232 25.7228 6.53885 25.8001 6.73334 25.8001H27.2669C27.4614 25.8001 27.6479 25.7228 27.7854 25.5853C27.9229 25.4478 28.0002 25.2612 28.0002 25.0667V8.93326C28.0002 8.73877 27.9229 8.55224 27.7854 8.41471C27.6479 8.27718 27.4614 8.19992 27.2669 8.19992ZM7.46668 24.3334V9.6666H26.5335V24.3334H7.46668Z" fill="#090012"/>
<path fill-rule="evenodd" clip-rule="evenodd" d="M27.7419 9.4906L17.4091 18.2907C17.2761 18.4041 17.107 18.4663 16.9322 18.466C16.7574 18.4657 16.5884 18.403 16.4558 18.2892L6.25355 9.48913C6.13998 9.39141 6.05907 9.26124 6.02171 9.11615C5.98434 8.97105 5.99231 8.81799 6.04456 8.67757C6.0968 8.53714 6.1908 8.41609 6.31391 8.33069C6.43702 8.2453 6.58333 8.19966 6.73316 8.19992H27.2667C27.4165 8.20021 27.5626 8.24636 27.6854 8.33217C27.8081 8.41797 27.9017 8.53932 27.9534 8.67989C28.0052 8.82045 28.0127 8.9735 27.9748 9.11843C27.937 9.26337 27.8557 9.39325 27.7419 9.4906ZM25.2749 9.6666H8.70584L16.9369 16.7668L25.2749 9.6666Z" fill="#090012"/>
</svg>
